<svg width="1920" height="1080" viewBox="0 0 1920 1080" fill="none" xmlns="http://www.w3.org/2000/svg">
<rect width="1920" height="1080" fill="#B0F6FF"/>
<rect width="1920" height="1080" fill="url(#paint0_linear_391_99)" fill-opacity="0.2"/>
<path d="M0 359V402V677H1920V443.5C1864.63 408.211 1793.7 408.73 1738.86 444.826L1719.42 457.621C1688.72 477.826 1664.1 506.003 1648.19 539.134L1618 602C1554.36 376.343 1271.56 302.312 1105.51 467.842L1072.25 501L1004.42 467.041C921.167 425.363 824.861 418.111 736.307 446.852C714.487 453.934 693.406 463.117 673.361 474.273L531 553.5L303.465 432.858C234.723 396.411 161.962 368.11 86.6594 348.531L0 326V359Z" fill="#5AC59C"/>
<path d="M1031.03 526.797L936.213 579.536C930.294 582.828 923.112 582.901 917.127 579.73L718.149 474.287C692.481 460.685 665.314 450.124 637.198 442.818L620.448 438.466C561.511 423.151 499.399 425.243 441.627 444.49C388.101 462.322 340.346 494.2 303.349 536.793L292.61 549.156C278.471 565.434 265.762 582.901 254.626 601.363L209 677H530.145H1920C1920 490.781 1699.09 392.921 1561.17 518.046L1480.46 591.264C1478.96 592.629 1476.8 593.005 1474.92 592.229L1281.42 512.282C1218.06 486.106 1147.45 483.346 1082.25 504.498C1064.49 510.257 1047.34 517.725 1031.03 526.797Z" fill="#4EA685"/>
<path d="M22.4269 373.51L14.8511 377.521C12.3922 378.823 10.1418 380.485 8.17455 382.452C2.94048 387.686 0 394.785 0 402.187V676.978H154.875L152.646 606.783L150.949 553.31C150.602 542.393 153.406 531.608 159.026 522.242L164.429 513.237C166.197 510.29 167.131 506.917 167.131 503.48C167.131 499.644 165.968 495.898 163.794 492.737L159.566 486.587C156.467 482.079 152.529 478.199 147.978 475.165C143.701 472.314 138.942 470.247 133.939 469.07L133.583 468.986C126.348 467.284 118.805 467.395 111.624 469.31L106.704 470.622C106.136 470.773 105.582 470.976 105.05 471.226C97.6531 474.707 89.4843 468.171 91.2576 460.191L91.365 459.708L94.7076 428.51V418.138C94.7076 407.399 91.9942 396.835 86.8192 387.426L84.663 383.506C83.1959 380.839 81.3588 378.392 79.2062 376.24C74.7801 371.813 69.1622 368.77 63.037 367.481L60.0303 366.848C54.2426 365.629 48.2645 365.629 42.4767 366.848L38.5612 367.672C32.9371 368.856 27.5064 370.821 22.4269 373.51Z" fill="#288670"/>
<path d="M297.427 412.51L295.93 413.303C289.441 416.738 283.502 421.124 278.311 426.316L275 429.627L272.826 432.494C268.289 438.48 264.419 444.944 261.284 451.769L258.717 457.361C256.087 463.088 254.337 469.178 253.525 475.427C252.195 485.651 253.41 496.045 257.061 505.687L265.084 526.876C271.64 544.19 275 562.551 275 581.065V677H433.5H472H495.061C503.275 677 509.409 669.441 507.716 661.403C507.247 659.174 506.198 657.108 504.674 655.415L502.662 653.18C499.616 649.796 495.675 647.343 491.294 646.105L478.838 642.585C476.345 641.88 474.142 640.397 472.551 638.352C469.757 634.759 469.205 629.905 471.122 625.776L472.936 621.869C473.969 619.644 474.563 617.24 474.685 614.79L474.694 614.624C474.893 610.647 473.808 606.711 471.599 603.398C470.539 601.809 469.241 600.393 467.749 599.199L466.046 597.836C464.105 596.284 461.993 594.958 459.751 593.885L455.812 592L448.5 588.5L446.955 587.636C434.762 580.815 429.792 565.815 435.5 553.063L436.186 551.359C439.899 542.136 438.745 531.665 433.112 523.472C430.973 520.361 428.261 517.688 425.121 515.594L422.971 514.161C418.694 511.31 413.942 509.247 408.939 508.07L408.583 507.986C401.348 506.284 393.805 506.395 386.624 508.31L381.704 509.622C381.136 509.773 380.582 509.976 380.05 510.226C372.653 513.707 364.484 507.171 366.258 499.191L366.365 498.708L369.708 467.51V457.138C369.708 446.399 366.994 435.835 361.819 426.426L359.663 422.506C358.196 419.839 356.359 417.392 354.206 415.24C349.78 410.813 344.162 407.77 338.037 406.481L335.03 405.848C329.243 404.629 323.264 404.629 317.477 405.848L313.561 406.672C307.937 407.856 302.506 409.821 297.427 412.51Z" fill="#288670"/>
<path d="M604.842 677H367.446C364.038 677 360.689 676.114 357.726 674.429C356.727 673.86 355.78 673.205 354.895 672.471L351.064 669.293L348.173 667.134C345.524 665.156 343.151 662.834 341.116 660.229C339.154 657.718 337.523 654.965 336.263 652.038L335.581 650.452L335.335 649.964C333.813 646.932 333.226 643.517 333.648 640.151C333.789 639.028 334.041 637.922 334.4 636.849L335.461 633.68C336.101 631.771 337.279 630.088 338.854 628.834C340.096 627.844 341.548 627.151 343.098 626.808L344.443 626.511C347.095 625.924 349.851 626.006 352.463 626.749L352.558 626.776C353.851 627.144 355.095 627.666 356.263 628.33L358.165 629.412C359.736 630.306 361.236 631.321 362.651 632.448L364.827 634.181L370.377 639.707C370.639 639.968 371.054 639.627 370.848 639.319L367.407 632.468L363.106 622.191L359.666 611.059C357.955 605.38 357.085 599.481 357.085 593.55V588.793L357.788 583.546C358.462 578.515 359.968 573.631 362.246 569.096L363.763 566.076C365.037 563.538 366.713 561.223 368.725 559.22L370.381 557.571C372.382 555.58 374.844 554.114 377.549 553.307L377.865 553.212C380.592 552.398 383.487 552.331 386.249 553.018C388.011 553.457 389.685 554.194 391.198 555.198L394.073 557.106L395.075 557.771C399.517 560.72 403.281 564.58 406.116 569.096L412.822 579.112C412.938 579.285 413.033 579.471 413.103 579.668C414.036 582.27 417.868 581.72 418.031 578.959L418.158 576.803L419.878 562.245L420.233 560.743C422.284 552.068 425.34 543.662 429.34 535.697L431.422 531.551C432.892 528.625 434.824 525.955 437.145 523.645L440.949 519.857C442.359 518.454 444.123 517.459 446.053 516.979L446.574 516.849C448.776 516.301 451.1 516.555 453.131 517.566C454.456 518.226 455.61 519.185 456.5 520.367L458.2 522.624C459.596 524.476 460.682 526.541 461.419 528.74L462.518 532.023C463.336 534.467 463.932 536.98 464.298 539.532L464.71 542.4C465.215 545.92 465.468 549.471 465.468 553.026V557.963L465.231 561.031C465.071 563.108 467.801 564.009 468.909 562.245L474.93 551.968L479.789 545.317C481.135 543.474 482.624 541.739 484.242 540.129C487.194 537.189 490.552 534.687 494.213 532.699L498.155 530.559L501.616 529.18C505.021 527.824 508.622 527.024 512.281 526.809L515.888 526.598C519.487 526.387 523.078 527.122 526.305 528.728L526.663 528.906C527.726 529.435 528.73 530.075 529.658 530.815C531.571 532.338 533.131 534.26 534.229 536.445L534.792 537.568C535.597 539.169 536.208 540.861 536.612 542.607L537.611 546.914C538.258 549.709 538.704 552.547 538.943 555.406L538.962 555.631C539.282 559.461 539.25 563.313 538.866 567.137L538.584 569.952L537.74 577.509C537.729 577.609 537.709 577.708 537.682 577.805C537.187 579.527 539.24 580.834 540.591 579.657L542.534 577.965C542.766 577.763 543.032 577.604 543.32 577.497L546.335 576.371C548.604 575.524 551.006 575.09 553.428 575.09H553.858C556.832 575.09 559.773 575.712 562.492 576.915C564.883 577.973 567.06 579.462 568.913 581.307L569.505 581.897C570.678 583.065 571.715 584.362 572.595 585.764C574.548 588.875 575.685 592.427 575.902 596.094L576.401 604.548C576.421 604.888 576.366 605.228 576.239 605.543C575.569 607.211 576.981 608.969 578.754 608.675L579.535 608.545C579.759 608.508 579.987 608.499 580.213 608.518L586.631 609.05C588.978 609.245 591.255 609.949 593.303 611.114C595.224 612.207 596.902 613.682 598.232 615.448L598.581 615.91C600.418 618.349 601.64 621.195 602.144 624.206L602.661 627.292C602.951 629.027 603.097 630.783 603.097 632.542V633.448C603.097 639.012 601.925 644.514 599.657 649.596L598.963 650.977C598.303 652.29 599.617 653.722 600.982 653.179C601.241 653.076 601.522 653.042 601.798 653.081L604.296 653.436C606.324 653.725 608.233 654.57 609.81 655.878L610.227 656.224C611.761 657.497 612.982 659.107 613.795 660.927L614.396 662.273C615.43 664.59 615.587 667.203 614.838 669.627C613.483 674.011 609.43 677 604.842 677Z" fill="#48A340"/>
<path d="M902.062 676.978H594.63C590.209 676.978 585.864 675.824 582.025 673.631C580.733 672.892 579.509 672.042 578.366 671.09L573.398 666.95L569.666 664.151C566.227 661.572 563.148 658.546 560.509 655.153C557.97 651.889 555.861 648.313 554.232 644.513L553.343 642.438L553.027 641.807C551.053 637.859 550.292 633.415 550.84 629.035C551.022 627.575 551.349 626.135 551.814 624.739L553.194 620.601C554.018 618.127 555.54 615.944 557.576 614.315C559.189 613.025 561.076 612.121 563.093 611.673L564.818 611.289C568.255 610.526 571.829 610.632 575.214 611.6L575.337 611.634C577.01 612.112 578.619 612.79 580.129 613.654L582.599 615.065C584.633 616.227 586.574 617.546 588.403 619.01L591.226 621.268L598.413 628.455C598.753 628.795 599.292 628.353 599.025 627.953L594.568 619.039L588.997 605.669L584.54 591.184C582.324 583.796 581.198 576.123 581.198 568.409V562.215L582.109 555.38C582.981 548.84 584.932 542.489 587.883 536.588L589.856 532.641C591.501 529.352 593.666 526.348 596.267 523.747L598.432 521.582C601.016 518.999 604.199 517.097 607.699 516.047L608.112 515.923C611.645 514.863 615.399 514.776 618.978 515.671C621.258 516.241 623.423 517.199 625.379 518.502L629.109 520.989L630.391 521.844C636.155 525.687 641.036 530.713 644.708 536.588L653.397 549.621C653.546 549.845 653.667 550.087 653.758 550.34C654.963 553.715 659.931 553.004 660.141 549.426L660.307 546.616L662.535 527.674L662.997 525.709C665.651 514.43 669.609 503.498 674.791 493.134L677.499 487.719C679.395 483.926 681.891 480.463 684.89 477.464L689.837 472.517C691.657 470.697 693.938 469.406 696.435 468.781L697.106 468.614C699.962 467.9 702.98 468.231 705.613 469.548C707.326 470.404 708.816 471.647 709.964 473.179L712.179 476.132C713.983 478.537 715.387 481.217 716.338 484.069L717.768 488.358C718.827 491.536 719.598 494.802 720.071 498.117L720.606 501.857C721.26 506.435 721.588 511.054 721.588 515.678V522.103L721.28 526.107C721.073 528.799 724.614 529.964 726.045 527.674L733.844 514.304L740.143 505.643C741.884 503.25 743.809 500.996 745.902 498.904C749.728 495.077 754.084 491.818 758.835 489.226L763.928 486.449L768.415 484.654C772.823 482.891 777.486 481.85 782.225 481.571L786.887 481.297C791.555 481.022 796.213 481.978 800.395 484.069L800.849 484.296C802.229 484.986 803.533 485.82 804.738 486.785C807.214 488.765 809.23 491.26 810.648 494.096L811.387 495.573C812.427 497.654 813.217 499.85 813.74 502.117L815.036 507.731C815.875 511.365 816.451 515.055 816.761 518.772L816.786 519.07C817.201 524.053 817.159 529.064 816.662 534.039L816.296 537.702L815.203 547.535C815.189 547.665 815.163 547.793 815.127 547.919C814.488 550.156 817.158 551.85 818.91 550.317L821.412 548.127C821.713 547.865 822.058 547.658 822.432 547.518L826.332 546.056C829.273 544.952 832.39 544.387 835.531 544.387H836.07C839.928 544.387 843.744 545.197 847.271 546.764C850.364 548.139 853.178 550.072 855.571 552.465L856.342 553.236C857.866 554.76 859.212 556.452 860.354 558.279C862.882 562.324 864.353 566.938 864.633 571.699L865.281 582.716C865.307 583.156 865.236 583.597 865.072 584.006C864.203 586.178 866.043 588.464 868.35 588.079L869.339 587.915C869.63 587.866 869.926 587.854 870.221 587.878L878.52 588.57C881.568 588.824 884.524 589.742 887.18 591.26C889.665 592.68 891.833 594.594 893.551 596.884L894.017 597.505C896.392 600.673 897.972 604.365 898.623 608.271L899.296 612.309C899.672 614.563 899.861 616.846 899.861 619.131V620.322C899.861 627.557 898.343 634.712 895.404 641.323L894.497 643.137C893.646 644.84 895.351 646.693 897.119 645.986C897.455 645.851 897.822 645.807 898.181 645.859L901.417 646.321C904.042 646.696 906.511 647.794 908.548 649.491L909.103 649.953C911.086 651.606 912.663 653.692 913.711 656.052L914.503 657.834C915.839 660.838 916.042 664.225 915.075 667.367C913.317 673.08 908.039 676.978 902.062 676.978Z" fill="#77CB6F"/>
<path d="M382.488 676.978H75.0556C70.6344 676.978 66.2897 675.824 62.451 673.631C61.1591 672.892 59.9345 672.042 58.7914 671.09L53.8241 666.95L50.0914 664.151C46.6528 661.572 43.5734 658.546 40.9345 655.153C38.396 651.889 36.2866 648.313 34.6578 644.513L33.7684 642.438L33.4531 641.807C31.4791 637.859 30.7179 633.415 31.2654 629.035C31.448 627.575 31.7745 626.135 32.2401 624.739L33.6193 620.601C34.4439 618.127 35.9659 615.944 38.0022 614.315C39.6151 613.025 41.502 612.121 43.5183 611.673L45.2441 611.289C48.6812 610.526 52.2547 610.632 55.6403 611.6L55.7624 611.634C57.4353 612.112 59.0446 612.79 60.5552 613.654L63.0246 615.065C65.0587 616.227 66.9993 617.546 68.8287 619.01L71.6515 621.268L78.8386 628.455C79.1784 628.795 79.7174 628.353 79.4509 627.953L74.9941 619.039L69.423 605.669L64.9662 591.184C62.7497 583.796 61.6236 576.123 61.6236 568.409V562.215L62.5349 555.38C63.4069 548.84 65.3581 542.489 68.3088 536.588L70.2821 532.641C71.927 529.352 74.0916 526.348 76.6926 523.747L78.8581 521.582C81.4413 518.999 84.6252 517.097 88.1243 516.047L88.5373 515.923C92.0707 514.863 95.8245 514.776 99.4033 515.671C101.684 516.241 103.849 517.199 105.805 518.502L109.535 520.989L110.816 521.844C116.581 525.687 121.461 530.713 125.133 536.588L133.822 549.621C133.972 549.845 134.093 550.087 134.183 550.34C135.389 553.715 140.357 553.004 140.567 549.426L140.732 546.616L142.961 527.674L143.423 525.709C146.077 514.43 150.035 503.498 155.217 493.134L157.924 487.719C159.821 483.926 162.317 480.463 165.316 477.464L170.263 472.517C172.083 470.697 174.363 469.406 176.861 468.781L177.532 468.614C180.388 467.9 183.406 468.231 186.039 469.548C187.752 470.404 189.241 471.647 190.39 473.179L192.605 476.132C194.409 478.537 195.813 481.217 196.764 484.069L198.193 488.358C199.253 491.536 200.024 494.802 200.497 498.117L201.031 501.857C201.685 506.435 202.014 511.054 202.014 515.678V522.103L201.706 526.107C201.499 528.799 205.04 529.964 206.471 527.674L214.27 514.304L220.569 505.643C222.309 503.25 224.235 500.996 226.327 498.904C230.154 495.077 234.51 491.818 239.261 489.226L244.354 486.449L248.841 484.654C253.249 482.891 257.912 481.85 262.651 481.571L267.312 481.297C271.98 481.022 276.638 481.978 280.821 484.069L281.274 484.296C282.655 484.986 283.958 485.82 285.164 486.785C287.64 488.765 289.656 491.26 291.074 494.096L291.813 495.573C292.853 497.654 293.643 499.85 294.166 502.117L295.462 507.731C296.3 511.365 296.877 515.055 297.187 518.772L297.211 519.07C297.627 524.053 297.585 529.064 297.088 534.039L296.721 537.702L295.629 547.535C295.614 547.665 295.589 547.793 295.553 547.919C294.914 550.156 297.584 551.85 299.336 550.317L301.838 548.127C302.139 547.865 302.484 547.658 302.857 547.518L306.757 546.056C309.699 544.952 312.815 544.387 315.957 544.387H316.495C320.354 544.387 324.17 545.197 327.696 546.764C330.79 548.139 333.603 550.072 335.997 552.465L336.768 553.236C338.292 554.76 339.638 556.452 340.78 558.279C343.308 562.324 344.779 566.938 345.059 571.699L345.707 582.716C345.733 583.156 345.662 583.597 345.498 584.006C344.629 586.178 346.469 588.464 348.776 588.079L349.765 587.915C350.056 587.866 350.352 587.854 350.646 587.878L358.946 588.57C361.994 588.824 364.95 589.742 367.606 591.26C370.091 592.68 372.259 594.594 373.977 596.884L374.442 597.505C376.818 600.673 378.398 604.365 379.049 608.271L379.722 612.309C380.098 614.563 380.287 616.846 380.287 619.131V620.322C380.287 627.557 378.769 634.712 375.83 641.323L374.923 643.137C374.072 644.84 375.777 646.693 377.544 645.986C377.881 645.851 378.247 645.807 378.606 645.859L381.842 646.321C384.468 646.696 386.937 647.794 388.974 649.491L389.528 649.953C391.512 651.606 393.088 653.692 394.137 656.052L394.929 657.834C396.264 660.838 396.467 664.225 395.5 667.367C393.743 673.08 388.465 676.978 382.488 676.978Z" fill="#77CB6F"/>
<path d="M1749.57 412.51L1751.07 413.303C1757.56 416.738 1763.5 421.124 1768.69 426.316L1772 429.627L1774.17 432.494C1778.71 438.48 1782.58 444.944 1785.72 451.769L1788.28 457.361C1790.91 463.088 1792.66 469.178 1793.48 475.427C1794.8 485.651 1793.59 496.045 1789.94 505.687L1781.92 526.876C1775.36 544.19 1772 562.551 1772 581.065V677H1613.5H1575H1551.94C1543.72 677 1537.59 669.441 1539.28 661.403C1539.75 659.174 1540.8 657.108 1542.33 655.415L1544.34 653.18C1547.38 649.796 1551.32 647.343 1555.71 646.105L1568.16 642.585C1570.66 641.88 1572.86 640.397 1574.45 638.352C1577.24 634.759 1577.8 629.905 1575.88 625.776L1574.06 621.869C1573.03 619.644 1572.44 617.24 1572.31 614.79L1572.31 614.624C1572.11 610.647 1573.19 606.711 1575.4 603.398C1576.46 601.809 1577.76 600.393 1579.25 599.199L1580.95 597.836C1582.9 596.284 1585.01 594.958 1587.25 593.885L1591.19 592L1598.5 588.5L1600.04 587.636C1612.24 580.815 1617.21 565.815 1611.5 553.063L1610.81 551.359C1607.1 542.136 1608.26 531.665 1613.89 523.472C1616.03 520.361 1618.74 517.688 1621.88 515.594L1624.03 514.161C1628.31 511.31 1633.06 509.247 1638.06 508.07L1638.42 507.986C1645.65 506.284 1653.19 506.395 1660.38 508.31L1665.3 509.622C1665.86 509.773 1666.42 509.976 1666.95 510.226C1674.35 513.707 1682.52 507.171 1680.74 499.191L1680.64 498.708L1677.29 467.51V457.138C1677.29 446.399 1680.01 435.835 1685.18 426.426L1687.34 422.506C1688.8 419.839 1690.64 417.392 1692.79 415.24C1697.22 410.813 1702.84 407.77 1708.96 406.481L1711.97 405.848C1717.76 404.629 1723.74 404.629 1729.52 405.848L1733.44 406.672C1739.06 407.856 1744.49 409.821 1749.57 412.51Z" fill="#288670"/>
<path d="M1688.84 677H1451.45C1448.04 677 1444.69 676.114 1441.73 674.429C1440.73 673.86 1439.78 673.205 1438.9 672.471L1435.06 669.293L1432.17 667.134C1429.52 665.156 1427.15 662.834 1425.12 660.229C1423.15 657.718 1421.52 654.965 1420.26 652.038L1419.58 650.452L1419.34 649.964C1417.81 646.932 1417.23 643.517 1417.65 640.151C1417.79 639.028 1418.04 637.922 1418.4 636.849L1419.46 633.68C1420.1 631.771 1421.28 630.088 1422.85 628.834C1424.1 627.844 1425.55 627.151 1427.1 626.808L1428.44 626.511C1431.09 625.924 1433.85 626.006 1436.46 626.749L1436.56 626.776C1437.85 627.144 1439.1 627.666 1440.26 628.33L1442.16 629.412C1443.74 630.306 1445.24 631.321 1446.65 632.448L1448.83 634.181L1454.38 639.707C1454.64 639.968 1455.05 639.627 1454.85 639.319L1451.41 632.468L1447.11 622.191L1443.67 611.059C1441.95 605.38 1441.09 599.481 1441.09 593.55V588.793L1441.79 583.546C1442.46 578.515 1443.97 573.631 1446.25 569.096L1447.76 566.076C1449.04 563.538 1450.71 561.223 1452.73 559.22L1454.38 557.571C1456.38 555.58 1458.84 554.114 1461.55 553.307L1461.86 553.212C1464.59 552.398 1467.49 552.331 1470.25 553.018C1472.01 553.457 1473.69 554.194 1475.2 555.198L1478.07 557.106L1479.07 557.771C1483.52 560.72 1487.28 564.58 1490.12 569.096L1496.82 579.112C1496.94 579.285 1497.03 579.471 1497.1 579.668C1498.04 582.27 1501.87 581.72 1502.03 578.959L1502.16 576.803L1503.88 562.245L1504.23 560.743C1506.28 552.068 1509.34 543.662 1513.34 535.697L1515.42 531.551C1516.89 528.625 1518.82 525.955 1521.15 523.645L1524.95 519.857C1526.36 518.454 1528.12 517.459 1530.05 516.979L1530.57 516.849C1532.78 516.301 1535.1 516.555 1537.13 517.566C1538.46 518.226 1539.61 519.185 1540.5 520.367L1542.2 522.624C1543.6 524.476 1544.68 526.541 1545.42 528.74L1546.52 532.023C1547.34 534.467 1547.93 536.98 1548.3 539.532L1548.71 542.4C1549.21 545.92 1549.47 549.471 1549.47 553.026V557.963L1549.23 561.031C1549.07 563.108 1551.8 564.009 1552.91 562.245L1558.93 551.968L1563.79 545.317C1565.14 543.474 1566.62 541.739 1568.24 540.129C1571.19 537.189 1574.55 534.687 1578.21 532.699L1582.16 530.559L1585.62 529.18C1589.02 527.824 1592.62 527.024 1596.28 526.809L1599.89 526.598C1603.49 526.387 1607.08 527.122 1610.31 528.728L1610.66 528.906C1611.73 529.435 1612.73 530.075 1613.66 530.815C1615.57 532.338 1617.13 534.26 1618.23 536.445L1618.79 537.568C1619.6 539.169 1620.21 540.861 1620.61 542.607L1621.61 546.914C1622.26 549.709 1622.7 552.547 1622.94 555.406L1622.96 555.631C1623.28 559.461 1623.25 563.313 1622.87 567.137L1622.58 569.952L1621.74 577.509C1621.73 577.609 1621.71 577.708 1621.68 577.805C1621.19 579.527 1623.24 580.834 1624.59 579.657L1626.53 577.965C1626.77 577.763 1627.03 577.604 1627.32 577.497L1630.34 576.371C1632.6 575.524 1635.01 575.09 1637.43 575.09H1637.86C1640.83 575.09 1643.77 575.712 1646.49 576.915C1648.88 577.973 1651.06 579.462 1652.91 581.307L1653.51 581.897C1654.68 583.065 1655.71 584.362 1656.6 585.764C1658.55 588.875 1659.68 592.427 1659.9 596.094L1660.4 604.548C1660.42 604.888 1660.37 605.228 1660.24 605.543C1659.57 607.211 1660.98 608.969 1662.75 608.675L1663.54 608.545C1663.76 608.508 1663.99 608.499 1664.21 608.518L1670.63 609.05C1672.98 609.245 1675.26 609.949 1677.3 611.114C1679.22 612.207 1680.9 613.682 1682.23 615.448L1682.58 615.91C1684.42 618.349 1685.64 621.195 1686.14 624.206L1686.66 627.292C1686.95 629.027 1687.1 630.783 1687.1 632.542V633.448C1687.1 639.012 1685.92 644.514 1683.66 649.596L1682.96 650.977C1682.3 652.29 1683.62 653.722 1684.98 653.179C1685.24 653.076 1685.52 653.042 1685.8 653.081L1688.3 653.436C1690.32 653.725 1692.23 654.57 1693.81 655.878L1694.23 656.224C1695.76 657.497 1696.98 659.107 1697.79 660.927L1698.4 662.273C1699.43 664.59 1699.59 667.203 1698.84 669.627C1697.48 674.011 1693.43 677 1688.84 677Z" fill="#48A340"/>
<path d="M2002.06 676.978H1694.63C1690.21 676.978 1685.86 675.824 1682.03 673.631C1680.73 672.892 1679.51 672.042 1678.37 671.09L1673.4 666.95L1669.67 664.151C1666.23 661.572 1663.15 658.546 1660.51 655.153C1657.97 651.889 1655.86 648.313 1654.23 644.513L1653.34 642.438L1653.03 641.807C1651.05 637.859 1650.29 633.415 1650.84 629.035C1651.02 627.575 1651.35 626.135 1651.81 624.739L1653.19 620.601C1654.02 618.127 1655.54 615.944 1657.58 614.315C1659.19 613.025 1661.08 612.121 1663.09 611.673L1664.82 611.289C1668.26 610.526 1671.83 610.632 1675.21 611.6L1675.34 611.634C1677.01 612.112 1678.62 612.79 1680.13 613.654L1682.6 615.065C1684.63 616.227 1686.57 617.546 1688.4 619.01L1691.23 621.268L1698.41 628.455C1698.75 628.795 1699.29 628.353 1699.03 627.953L1694.57 619.039L1689 605.669L1684.54 591.184C1682.32 583.796 1681.2 576.123 1681.2 568.409V562.215L1682.11 555.38C1682.98 548.84 1684.93 542.489 1687.88 536.588L1689.86 532.641C1691.5 529.352 1693.67 526.348 1696.27 523.747L1698.43 521.582C1701.02 518.999 1704.2 517.097 1707.7 516.047L1708.11 515.923C1711.64 514.863 1715.4 514.776 1718.98 515.671C1721.26 516.241 1723.42 517.199 1725.38 518.502L1729.11 520.989L1730.39 521.844C1736.16 525.687 1741.04 530.713 1744.71 536.588L1753.4 549.621C1753.55 549.845 1753.67 550.087 1753.76 550.34C1754.96 553.715 1759.93 553.004 1760.14 549.426L1760.31 546.616L1762.53 527.674L1763 525.709C1765.65 514.43 1769.61 503.498 1774.79 493.134L1777.5 487.719C1779.4 483.926 1781.89 480.463 1784.89 477.464L1789.84 472.517C1791.66 470.697 1793.94 469.406 1796.44 468.781L1797.11 468.614C1799.96 467.9 1802.98 468.231 1805.61 469.548C1807.33 470.404 1808.82 471.647 1809.96 473.179L1812.18 476.132C1813.98 478.537 1815.39 481.217 1816.34 484.069L1817.77 488.358C1818.83 491.536 1819.6 494.802 1820.07 498.117L1820.61 501.857C1821.26 506.435 1821.59 511.054 1821.59 515.678V522.103L1821.28 526.107C1821.07 528.799 1824.61 529.964 1826.04 527.674L1833.84 514.304L1840.14 505.643C1841.88 503.25 1843.81 500.996 1845.9 498.904C1849.73 495.077 1854.08 491.818 1858.84 489.226L1863.93 486.449L1868.41 484.654C1872.82 482.891 1877.49 481.85 1882.23 481.571L1886.89 481.297C1891.55 481.022 1896.21 481.978 1900.4 484.069L1900.85 484.296C1902.23 484.986 1903.53 485.82 1904.74 486.785C1907.21 488.765 1909.23 491.26 1910.65 494.096L1911.39 495.573C1912.43 497.654 1913.22 499.85 1913.74 502.117L1915.04 507.731C1915.87 511.365 1916.45 515.055 1916.76 518.772L1916.79 519.07C1917.2 524.053 1917.16 529.064 1916.66 534.039L1916.3 537.702L1915.2 547.535C1915.19 547.665 1915.16 547.793 1915.13 547.919C1914.49 550.156 1917.16 551.85 1918.91 550.317L1921.41 548.127C1921.71 547.865 1922.06 547.658 1922.43 547.518L1926.33 546.056C1929.27 544.952 1932.39 544.387 1935.53 544.387H1936.07C1939.93 544.387 1943.74 545.197 1947.27 546.764C1950.36 548.139 1953.18 550.072 1955.57 552.465L1956.34 553.236C1957.87 554.76 1959.21 556.452 1960.35 558.279C1962.88 562.324 1964.35 566.938 1964.63 571.699L1965.28 582.716C1965.31 583.156 1965.24 583.597 1965.07 584.006C1964.2 586.178 1966.04 588.464 1968.35 588.079L1969.34 587.915C1969.63 587.866 1969.93 587.854 1970.22 587.878L1978.52 588.57C1981.57 588.824 1984.52 589.742 1987.18 591.26C1989.67 592.68 1991.83 594.594 1993.55 596.884L1994.02 597.505C1996.39 600.673 1997.97 604.365 1998.62 608.271L1999.3 612.309C1999.67 614.563 1999.86 616.846 1999.86 619.131V620.322C1999.86 627.557 1998.34 634.712 1995.4 641.323L1994.5 643.137C1993.65 644.84 1995.35 646.693 1997.12 645.986C1997.46 645.851 1997.82 645.807 1998.18 645.859L2001.42 646.321C2004.04 646.696 2006.51 647.794 2008.55 649.491L2009.1 649.953C2011.09 651.606 2012.66 653.692 2013.71 656.052L2014.5 657.834C2015.84 660.838 2016.04 664.225 2015.07 667.367C2013.32 673.08 2008.04 676.978 2002.06 676.978Z" fill="#77CB6F"/>
<circle cx="470.5" cy="98.5" r="192.5" fill="#FFE482"/>
<path d="M1920 677H0V1080H1920V677Z" fill="#BAB37B"/>
<path d="M0 854H154L143.5 873H0V854Z" fill="#535252"/>
<path d="M199.979 854H456L440.03 873L189 873L199.979 854Z" fill="#535252"/>
<path d="M507 854H753L742.5 873L491 873L507 854Z" fill="#535252"/>
<path d="M799 854H1055.5L1039.5 873L788 873L799 854Z" fill="#535252"/>
<path d="M1104.18 854H1353L1342.38 873L1088 873L1104.18 854Z" fill="#535252"/>
<path d="M1398.98 854H1655L1639.03 873L1388 873L1398.98 854Z" fill="#535252"/>
<path d="M1706 854H1920V873H1690L1706 854Z" fill="#535252"/>
<defs>
<linearGradient id="paint0_linear_391_99" x1="69" y1="126" x2="1707.5" y2="869" gradientUnits="userSpaceOnUse">
<stop stop-color="#FFC700"/>
<stop offset="1" stop-color="#D7DB0B"/>
</linearGradient>
</defs>
</svg>
