<svg width="1441" height="811" viewBox="0 0 1441 811" fill="none" xmlns="http://www.w3.org/2000/svg">
<g clip-path="url(#clip0_408_2553)">
<rect width="1440" height="810" transform="translate(0.5 0.28125)" fill="url(#paint0_linear_408_2553)"/>
<rect x="0.5" y="0.28125" width="1440" height="810" fill="#1F57C4"/>
<path d="M0.5 269.531V301.781V508.031H1440.5V332.906C1398.97 306.44 1345.78 306.829 1304.64 333.901L1290.06 343.497C1267.04 358.65 1248.57 379.784 1236.64 404.632L1214 451.781C1166.27 282.539 954.167 227.015 829.633 351.163L804.688 376.031L753.813 350.562C691.375 319.303 619.146 313.864 552.73 335.42C536.365 340.732 520.555 347.619 505.521 355.986L398.75 415.406L228.099 324.925C176.542 297.589 121.972 276.364 65.4946 261.68L0.5 244.781V269.531Z" fill="#5AC59C"/>
<path d="M773.774 395.379L702.66 434.933C698.221 437.402 692.834 437.457 688.345 435.079L539.112 355.997C519.861 345.795 499.485 337.875 478.399 332.395L465.836 329.131C421.634 317.644 375.049 319.214 331.72 333.649C291.576 347.023 255.759 370.931 228.012 402.876L219.958 412.148C209.353 424.357 199.822 437.457 191.469 451.304L157.25 508.031H398.109H1440.5C1440.5 368.367 1274.81 294.972 1171.38 388.816L1110.85 443.729C1109.72 444.753 1108.1 445.035 1106.69 444.453L961.565 384.493C914.047 364.86 861.09 362.791 812.185 378.655C798.87 382.974 786.006 388.575 773.774 395.379Z" fill="#4EA685"/>
<path d="M17.3202 280.414L11.6383 283.422C9.79417 284.398 8.10638 285.645 6.63091 287.12C2.70535 291.046 0.5 296.37 0.5 301.922V508.015H116.656L114.985 455.368L113.712 415.264C113.452 407.076 115.555 398.987 119.769 391.963L123.822 385.209C125.148 382.998 125.848 380.469 125.848 377.892C125.848 375.014 124.976 372.205 123.346 369.834L120.174 365.221C117.85 361.841 114.897 358.931 111.483 356.655C108.276 354.517 104.707 352.966 100.954 352.084L100.687 352.021C95.2612 350.744 89.604 350.827 84.2181 352.264L80.5279 353.248C80.1017 353.361 79.6865 353.513 79.2874 353.701C73.7398 356.311 67.6132 351.409 68.9432 345.424L69.0238 345.062L71.5307 321.664V313.884C71.5307 305.831 69.4956 297.908 65.6144 290.851L63.9973 287.911C62.897 285.91 61.5191 284.075 59.9047 282.461C56.5851 279.141 52.3716 276.859 47.7777 275.892L45.5227 275.417C41.1819 274.503 36.6984 274.503 32.3576 275.417L29.4209 276.035C25.2028 276.923 21.1298 278.397 17.3202 280.414Z" fill="#288670"/>
<path d="M223.57 309.664L222.448 310.258C217.581 312.835 213.127 316.124 209.233 320.018L206.75 322.501L205.12 324.652C201.717 329.141 198.814 333.989 196.463 339.108L194.538 343.302C192.566 347.597 191.253 352.165 190.643 356.851C189.647 364.519 190.558 372.315 193.296 379.546L199.313 395.438C204.23 408.424 206.75 422.195 206.75 436.08V508.031H325.625H354.5H371.796C377.957 508.031 382.557 502.362 381.287 496.333C380.935 494.662 380.148 493.113 379.005 491.843L377.496 490.166C375.212 487.628 372.256 485.788 368.97 484.86L359.628 482.22C357.759 481.691 356.107 480.579 354.914 479.045C352.818 476.35 352.404 472.71 353.841 469.613L355.202 466.683C355.977 465.014 356.422 463.212 356.514 461.374L356.52 461.249C356.669 458.266 355.856 455.315 354.199 452.83C353.404 451.638 352.431 450.576 351.312 449.681L350.034 448.659C348.579 447.494 346.995 446.5 345.314 445.695L342.359 444.281L336.875 441.656L335.716 441.008C326.572 435.893 322.844 424.643 327.125 415.079L327.639 413.801C330.424 406.883 329.559 399.03 325.334 392.885C323.73 390.552 321.696 388.547 319.341 386.977L317.728 385.902C314.521 383.764 310.957 382.216 307.204 381.334L306.937 381.271C301.511 379.994 295.854 380.077 290.468 381.514L286.778 382.498C286.352 382.611 285.937 382.763 285.537 382.951C279.99 385.561 273.863 380.659 275.193 374.674L275.274 374.312L277.781 350.914V343.134C277.781 335.081 275.746 327.158 271.864 320.101L270.247 317.161C269.147 315.16 267.769 313.325 266.155 311.711C262.835 308.391 258.622 306.109 254.028 305.142L251.773 304.667C247.432 303.753 242.948 303.753 238.608 304.667L235.671 305.285C231.453 306.173 227.38 307.647 223.57 309.664Z" fill="#288670"/>
<path d="M287.367 508.015H56.7927C53.4768 508.015 50.2182 507.15 47.3392 505.504C46.3703 504.951 45.4519 504.313 44.5946 503.599L40.8691 500.494L38.0695 498.394C35.4906 496.46 33.181 494.191 31.2018 491.646C29.298 489.198 27.7159 486.516 26.4943 483.666L25.8273 482.11L25.5908 481.637C24.1103 478.676 23.5394 475.343 23.95 472.058C24.087 470.962 24.3318 469.883 24.681 468.835L25.7154 465.732C26.3339 463.877 27.4754 462.239 29.0026 461.018C30.2123 460.05 31.6275 459.372 33.1397 459.036L34.434 458.748C37.0119 458.176 39.692 458.255 42.2312 458.981L42.3228 459.007C43.5775 459.366 44.7844 459.874 45.9174 460.521L47.7694 461.58C49.295 462.452 50.7505 463.441 52.1225 464.538L54.2396 466.232L59.63 471.622C59.8848 471.877 60.289 471.546 60.0892 471.246L56.7465 464.561L52.5683 454.533L49.2256 443.669C47.5632 438.128 46.7187 432.374 46.7187 426.588V421.942L47.4021 416.816C48.0562 411.911 49.5195 407.148 51.7326 402.722L53.2125 399.762C54.4462 397.295 56.0697 395.043 58.0204 393.092L59.6446 391.468C61.582 389.53 63.9699 388.104 66.5942 387.317L66.9039 387.224C69.554 386.429 72.3694 386.363 75.0535 387.034C76.7637 387.462 78.3877 388.18 79.8545 389.158L82.6518 391.023L83.6132 391.664C87.9367 394.546 91.5971 398.316 94.351 402.722L100.868 412.497C100.98 412.665 101.071 412.846 101.138 413.036C102.043 415.568 105.768 415.034 105.926 412.351L106.05 410.243L107.722 396.037L108.068 394.563C110.059 386.104 113.027 377.905 116.914 370.132L118.944 366.071C120.367 363.226 122.239 360.628 124.488 358.379L128.198 354.669C129.563 353.304 131.274 352.336 133.147 351.867L133.65 351.742C135.792 351.206 138.055 351.454 140.03 352.442C141.315 353.084 142.432 354.017 143.294 355.166L144.955 357.38C146.308 359.184 147.361 361.194 148.074 363.333L149.146 366.55C149.94 368.933 150.519 371.383 150.874 373.869L151.275 376.674C151.765 380.108 152.011 383.572 152.011 387.04V391.859L151.78 394.862C151.625 396.881 154.281 397.754 155.354 396.037L161.203 386.009L165.928 379.514C167.233 377.719 168.677 376.029 170.246 374.459C173.117 371.589 176.383 369.145 179.947 367.201L183.766 365.118L187.132 363.772C190.437 362.449 193.935 361.669 197.489 361.459L200.985 361.254C204.486 361.048 207.98 361.765 211.117 363.333L211.457 363.503C212.492 364.021 213.47 364.647 214.374 365.37C216.231 366.855 217.743 368.726 218.807 370.853L219.36 371.961C220.141 373.521 220.733 375.169 221.126 376.869L222.097 381.08C222.726 383.805 223.159 386.573 223.391 389.36L223.409 389.583C223.721 393.321 223.69 397.079 223.317 400.811L223.042 403.558L222.223 410.933C222.212 411.03 222.193 411.126 222.166 411.22C221.686 412.899 223.689 414.169 225.003 413.019L226.88 411.377C227.105 411.18 227.364 411.025 227.644 410.92L230.569 409.823C232.775 408.996 235.112 408.572 237.469 408.572H237.872C240.767 408.572 243.629 409.179 246.273 410.355C248.593 411.386 250.704 412.835 252.499 414.63L253.077 415.209C254.22 416.351 255.229 417.62 256.086 418.991C257.982 422.024 259.085 425.485 259.295 429.056L259.781 437.318C259.801 437.649 259.747 437.979 259.624 438.286C258.973 439.915 260.353 441.629 262.083 441.341L262.824 441.217C263.043 441.181 263.265 441.172 263.486 441.19L269.71 441.709C271.997 441.899 274.214 442.588 276.206 443.726C278.069 444.791 279.695 446.227 280.983 447.944L281.333 448.41C283.115 450.786 284.3 453.555 284.788 456.485L285.293 459.513C285.574 461.204 285.716 462.915 285.716 464.63V465.523C285.716 470.949 284.577 476.315 282.374 481.274L281.693 482.634C281.055 483.911 282.333 485.301 283.659 484.771C283.912 484.67 284.187 484.637 284.456 484.675L286.883 485.022C288.852 485.303 290.704 486.126 292.232 487.4L292.647 487.746C294.135 488.986 295.317 490.551 296.104 492.32L296.698 493.657C297.699 495.91 297.851 498.45 297.126 500.807C295.808 505.091 291.849 508.015 287.367 508.015Z" fill="#77CB6F"/>
<path d="M677.046 508.015H446.472C443.156 508.015 439.898 507.15 437.019 505.504C436.05 504.951 435.132 504.313 434.274 503.599L430.549 500.494L427.749 498.394C425.17 496.46 422.861 494.191 420.882 491.646C418.978 489.198 417.396 486.516 416.174 483.666L415.507 482.11L415.27 481.637C413.79 478.676 413.219 475.343 413.63 472.058C413.767 470.962 414.012 469.883 414.361 468.835L415.395 465.732C416.014 463.877 417.155 462.239 418.682 461.018C419.892 460.05 421.307 459.372 422.819 459.036L424.114 458.748C426.692 458.176 429.372 458.255 431.911 458.981L432.002 459.007C433.257 459.366 434.464 459.874 435.597 460.521L437.449 461.58C438.975 462.452 440.43 463.441 441.802 464.538L443.919 466.232L449.31 471.622C449.564 471.877 449.969 471.546 449.769 471.246L446.426 464.561L442.248 454.533L438.905 443.669C437.243 438.128 436.398 432.374 436.398 426.588V421.942L437.082 416.816C437.736 411.911 439.199 407.148 441.412 402.722L442.892 399.762C444.126 397.295 445.749 395.043 447.7 393.092L449.324 391.468C451.262 389.53 453.65 388.104 456.274 387.317L456.584 387.224C459.234 386.429 462.049 386.363 464.733 387.034C466.443 387.462 468.067 388.18 469.534 389.158L472.332 391.023L473.293 391.664C477.616 394.546 481.277 398.316 484.031 402.722L490.547 412.497C490.659 412.665 490.75 412.846 490.818 413.036C491.722 415.568 495.448 415.034 495.606 412.351L495.73 410.243L497.401 396.037L497.748 394.563C499.738 386.104 502.707 377.905 506.593 370.132L508.624 366.071C510.046 363.226 511.918 360.628 514.168 358.379L517.878 354.669C519.243 353.304 520.953 352.336 522.826 351.867L523.329 351.742C525.472 351.206 527.735 351.454 529.71 352.442C530.994 353.084 532.112 354.017 532.973 355.166L534.634 357.38C535.987 359.184 537.041 361.194 537.754 363.333L538.826 366.55C539.62 368.933 540.198 371.383 540.554 373.869L540.954 376.674C541.445 380.108 541.691 383.572 541.691 387.04V391.859L541.46 394.862C541.305 396.881 543.96 397.754 545.034 396.037L550.883 386.009L555.607 379.514C556.913 377.719 558.357 376.029 559.926 374.459C562.796 371.589 566.063 369.145 569.626 367.201L573.446 365.118L576.811 363.772C580.117 362.449 583.614 361.669 587.169 361.459L590.665 361.254C594.166 361.048 597.66 361.765 600.796 363.333L601.136 363.503C602.172 364.021 603.15 364.647 604.053 365.37C605.91 366.855 607.423 368.726 608.486 370.853L609.04 371.961C609.82 373.521 610.413 375.169 610.805 376.869L611.777 381.08C612.406 383.805 612.838 386.573 613.071 389.36L613.089 389.583C613.401 393.321 613.37 397.079 612.996 400.811L612.722 403.558L611.902 410.933C611.891 411.03 611.872 411.126 611.846 411.22C611.366 412.899 613.369 414.169 614.682 413.019L616.559 411.377C616.785 411.18 617.043 411.025 617.324 410.92L620.249 409.823C622.455 408.996 624.792 408.572 627.149 408.572H627.552C630.446 408.572 633.308 409.179 635.953 410.355C638.273 411.386 640.383 412.835 642.178 414.63L642.757 415.209C643.9 416.351 644.909 417.62 645.766 418.991C647.661 422.024 648.765 425.485 648.975 429.056L649.461 437.318C649.48 437.649 649.427 437.979 649.304 438.286C648.653 439.915 650.033 441.629 651.763 441.341L652.504 441.217C652.723 441.181 652.945 441.172 653.165 441.19L659.39 441.709C661.676 441.899 663.893 442.588 665.885 443.726C667.749 444.791 669.375 446.227 670.663 447.944L671.012 448.41C672.794 450.786 673.979 453.555 674.468 456.485L674.972 459.513C675.254 461.204 675.396 462.915 675.396 464.63V465.523C675.396 470.949 674.257 476.315 672.053 481.274L671.373 482.634C670.734 483.911 672.013 485.301 673.339 484.771C673.592 484.67 673.866 484.637 674.135 484.675L676.562 485.022C678.531 485.303 680.383 486.126 681.911 487.4L682.327 487.746C683.814 488.986 684.997 490.551 685.783 492.32L686.377 493.657C687.379 495.91 687.531 498.45 686.806 500.807C685.488 505.091 681.529 508.015 677.046 508.015Z" fill="#77CB6F"/>
<path d="M1440.5 508.031H0.5V810.281H1440.5V508.031Z" fill="#BAB37B"/>
<path d="M0.5 652.031H116L108.125 666.281H0.5V652.031Z" fill="#535252"/>
<path d="M150.485 652.031H342.5L330.522 666.281L142.25 666.281L150.485 652.031Z" fill="#535252"/>
<path d="M380.75 652.031H565.25L557.375 666.281L368.75 666.281L380.75 652.031Z" fill="#535252"/>
<path d="M599.75 652.031H792.125L780.125 666.281L591.5 666.281L599.75 652.031Z" fill="#535252"/>
<path d="M828.637 652.031H1015.25L1007.28 666.281L816.5 666.281L828.637 652.031Z" fill="#535252"/>
<path d="M1049.73 652.031H1241.75L1229.77 666.281L1041.5 666.281L1049.73 652.031Z" fill="#535252"/>
<path d="M1280 652.031H1440.5V666.281H1268L1280 652.031Z" fill="#535252"/>
<path d="M1312.68 309.664L1313.8 310.258C1318.67 312.835 1323.12 316.124 1327.02 320.018L1329.5 322.501L1331.13 324.652C1334.53 329.141 1337.44 333.989 1339.79 339.108L1341.71 343.302C1343.68 347.597 1345 352.165 1345.61 356.851C1346.6 364.519 1345.69 372.315 1342.95 379.546L1336.94 395.438C1332.02 408.424 1329.5 422.195 1329.5 436.08V508.031H1210.62H1181.75H1164.45C1158.29 508.031 1153.69 502.362 1154.96 496.333C1155.31 494.662 1156.1 493.113 1157.24 491.843L1158.75 490.166C1161.04 487.628 1163.99 485.788 1167.28 484.86L1176.62 482.22C1178.49 481.691 1180.14 480.579 1181.34 479.045C1183.43 476.35 1183.85 472.71 1182.41 469.613L1181.05 466.683C1180.27 465.014 1179.83 463.212 1179.74 461.374L1179.73 461.249C1179.58 458.266 1180.39 455.315 1182.05 452.83C1182.85 451.638 1183.82 450.576 1184.94 449.681L1186.22 448.659C1187.67 447.494 1189.26 446.5 1190.94 445.695L1193.89 444.281L1199.38 441.656L1200.53 441.008C1209.68 435.893 1213.41 424.643 1209.12 415.079L1208.61 413.801C1205.83 406.883 1206.69 399.03 1210.92 392.885C1212.52 390.552 1214.55 388.547 1216.91 386.977L1218.52 385.902C1221.73 383.764 1225.29 382.216 1229.05 381.334L1229.31 381.271C1234.74 379.994 1240.4 380.077 1245.78 381.514L1249.47 382.498C1249.9 382.611 1250.31 382.763 1250.71 382.951C1256.26 385.561 1262.39 380.659 1261.06 374.674L1260.98 374.312L1258.47 350.914V343.134C1258.47 335.081 1260.5 327.158 1264.39 320.101L1266 317.161C1267.1 315.16 1268.48 313.325 1270.1 311.711C1273.41 308.391 1277.63 306.109 1282.22 305.142L1284.48 304.667C1288.82 303.753 1293.3 303.753 1297.64 304.667L1300.58 305.285C1304.8 306.173 1308.87 307.647 1312.68 309.664Z" fill="#288670"/>
<path d="M1267.13 508.031H1089.08C1086.53 508.031 1084.02 507.367 1081.79 506.103C1081.05 505.676 1080.34 505.185 1079.67 504.635L1076.8 502.251L1074.63 500.632C1072.64 499.149 1070.86 497.407 1069.34 495.453C1067.87 493.57 1066.64 491.505 1065.7 489.31L1065.19 488.12L1065 487.754C1063.86 485.48 1063.42 482.919 1063.74 480.394C1063.84 479.552 1064.03 478.723 1064.3 477.918L1065.1 475.542C1065.58 474.11 1066.46 472.847 1067.64 471.906C1068.57 471.164 1069.66 470.645 1070.82 470.388L1071.83 470.164C1073.82 469.724 1075.89 469.786 1077.85 470.343L1077.92 470.363C1078.89 470.639 1079.82 471.031 1080.7 471.529L1082.12 472.34C1083.3 473.011 1084.43 473.772 1085.49 474.617L1087.12 475.917L1091.28 480.061C1091.48 480.257 1091.79 480.001 1091.64 479.771L1089.06 474.632L1085.83 466.925L1083.25 458.575C1081.97 454.316 1081.31 449.892 1081.31 445.444V441.876L1081.84 437.94C1082.35 434.167 1083.48 430.505 1085.18 427.103L1086.32 424.838C1087.28 422.935 1088.53 421.199 1090.04 419.696L1091.29 418.46C1092.79 416.966 1094.63 415.867 1096.66 415.261L1096.9 415.19C1098.94 414.58 1101.12 414.529 1103.19 415.045C1104.51 415.374 1105.76 415.927 1106.9 416.68L1109.05 418.111L1109.81 418.61C1113.14 420.821 1115.96 423.716 1118.09 427.103L1123.12 434.615C1123.2 434.745 1123.27 434.885 1123.33 435.032C1124.03 436.984 1126.9 436.571 1127.02 434.501L1127.12 432.884L1128.41 421.965L1128.68 420.838C1130.21 414.332 1132.5 408.028 1135.51 402.054L1137.07 398.945C1138.17 396.75 1139.62 394.748 1141.36 393.015L1144.21 390.174C1145.27 389.122 1146.59 388.376 1148.04 388.015L1148.43 387.918C1150.08 387.507 1151.83 387.698 1153.35 388.456C1154.34 388.951 1155.21 389.67 1155.88 390.556L1157.15 392.249C1158.2 393.638 1159.01 395.187 1159.56 396.836L1160.39 399.298C1161 401.132 1161.45 403.017 1161.72 404.93L1162.03 407.082C1162.41 409.721 1162.6 412.384 1162.6 415.051V418.753L1162.42 421.054C1162.3 422.612 1164.35 423.288 1165.18 421.965L1169.7 414.257L1173.34 409.269C1174.35 407.886 1175.47 406.585 1176.68 405.378C1178.9 403.173 1181.41 401.297 1184.16 399.806L1187.12 398.2L1189.71 397.166C1192.27 396.149 1194.97 395.549 1197.71 395.388L1200.42 395.23C1203.11 395.072 1205.81 395.623 1208.23 396.827L1208.5 396.961C1209.29 397.358 1210.05 397.838 1210.74 398.392C1212.18 399.535 1213.35 400.976 1214.17 402.615L1214.59 403.457C1215.2 404.658 1215.66 405.927 1215.96 407.237L1216.71 410.467C1217.19 412.563 1217.53 414.691 1217.71 416.835L1217.72 417.004C1217.96 419.877 1217.94 422.766 1217.65 425.634L1217.44 427.745L1216.81 433.413C1216.8 433.488 1216.78 433.563 1216.76 433.635C1216.39 434.927 1217.93 435.907 1218.94 435.024L1220.4 433.755C1220.57 433.604 1220.77 433.485 1220.99 433.404L1223.25 432.56C1224.95 431.924 1226.75 431.599 1228.57 431.599H1228.89C1231.12 431.599 1233.33 432.065 1235.37 432.968C1237.16 433.761 1238.79 434.878 1240.18 436.261L1240.63 436.704C1241.51 437.58 1242.29 438.553 1242.95 439.604C1244.41 441.937 1245.26 444.602 1245.43 447.351L1245.8 453.692C1245.82 453.947 1245.77 454.202 1245.68 454.439C1245.18 455.689 1246.24 457.008 1247.57 456.787L1248.15 456.69C1248.32 456.662 1248.49 456.655 1248.66 456.669L1253.47 457.069C1255.23 457.215 1256.94 457.743 1258.48 458.617C1259.92 459.437 1261.18 460.543 1262.17 461.867L1262.44 462.214C1263.81 464.043 1264.73 466.177 1265.11 468.436L1265.5 470.75C1265.71 472.052 1265.82 473.368 1265.82 474.688V475.367C1265.82 479.54 1264.94 483.667 1263.24 487.478L1262.72 488.514C1262.23 489.499 1263.21 490.573 1264.24 490.165C1264.43 490.088 1264.64 490.063 1264.85 490.092L1266.72 490.359C1268.24 490.575 1269.67 491.209 1270.86 492.19L1271.17 492.449C1272.32 493.404 1273.24 494.611 1273.85 495.977L1274.3 496.986C1275.07 498.724 1275.19 500.684 1274.63 502.502C1273.61 505.789 1270.57 508.031 1267.13 508.031Z" fill="#48A340"/>
<path d="M1502.05 508.015H1271.47C1268.16 508.015 1264.9 507.149 1262.02 505.504C1261.05 504.951 1260.13 504.313 1259.27 503.599L1255.55 500.494L1252.75 498.394C1250.17 496.46 1247.86 494.191 1245.88 491.646C1243.98 489.198 1242.4 486.516 1241.17 483.666L1240.51 482.11L1240.27 481.637C1238.79 478.676 1238.22 475.343 1238.63 472.058C1238.77 470.962 1239.01 469.883 1239.36 468.835L1240.4 465.732C1241.01 463.877 1242.16 462.239 1243.68 461.018C1244.89 460.05 1246.31 459.372 1247.82 459.036L1249.11 458.748C1251.69 458.176 1254.37 458.255 1256.91 458.981L1257 459.007C1258.26 459.366 1259.46 459.874 1260.6 460.521L1262.45 461.58C1263.97 462.452 1265.43 463.441 1266.8 464.538L1268.92 466.232L1274.31 471.622C1274.56 471.877 1274.97 471.546 1274.77 471.246L1271.43 464.561L1267.25 454.533L1263.91 443.669C1262.24 438.128 1261.4 432.374 1261.4 426.588V421.942L1262.08 416.816C1262.74 411.911 1264.2 407.148 1266.41 402.722L1267.89 399.762C1269.13 397.295 1270.75 395.043 1272.7 393.092L1274.32 391.468C1276.26 389.53 1278.65 388.104 1281.27 387.317L1281.58 387.224C1284.23 386.429 1287.05 386.363 1289.73 387.034C1291.44 387.462 1293.07 388.18 1294.53 389.158L1297.33 391.023L1298.29 391.664C1302.62 394.546 1306.28 398.316 1309.03 402.722L1315.55 412.497C1315.66 412.665 1315.75 412.846 1315.82 413.036C1316.72 415.568 1320.45 415.034 1320.61 412.351L1320.73 410.243L1322.4 396.037L1322.75 394.563C1324.74 386.104 1327.71 377.905 1331.59 370.132L1333.62 366.071C1335.05 363.226 1336.92 360.628 1339.17 358.379L1342.88 354.669C1344.24 353.304 1345.95 352.336 1347.83 351.867L1348.33 351.742C1350.47 351.206 1352.73 351.454 1354.71 352.442C1355.99 353.084 1357.11 354.017 1357.97 355.166L1359.63 357.38C1360.99 359.184 1362.04 361.194 1362.75 363.333L1363.83 366.55C1364.62 368.933 1365.2 371.383 1365.55 373.869L1365.95 376.674C1366.44 380.108 1366.69 383.572 1366.69 387.04V391.859L1366.46 394.862C1366.3 396.881 1368.96 397.754 1370.03 396.037L1375.88 386.009L1380.61 379.514C1381.91 377.719 1383.36 376.029 1384.93 374.459C1387.8 371.589 1391.06 369.145 1394.63 367.201L1398.45 365.118L1401.81 363.772C1405.12 362.449 1408.61 361.669 1412.17 361.459L1415.66 361.254C1419.17 361.048 1422.66 361.765 1425.8 363.333L1426.14 363.503C1427.17 364.021 1428.15 364.647 1429.05 365.37C1430.91 366.855 1432.42 368.726 1433.49 370.853L1434.04 371.961C1434.82 373.521 1435.41 375.169 1435.81 376.869L1436.78 381.08C1437.41 383.805 1437.84 386.573 1438.07 389.36L1438.09 389.584C1438.4 393.321 1438.37 397.079 1438 400.811L1437.72 403.558L1436.9 410.933C1436.89 411.03 1436.87 411.126 1436.85 411.22C1436.37 412.899 1438.37 414.169 1439.68 413.019L1441.56 411.377C1441.78 411.18 1442.04 411.025 1442.32 410.92L1445.25 409.823C1447.46 408.996 1449.79 408.572 1452.15 408.572H1452.55C1455.45 408.572 1458.31 409.179 1460.95 410.355C1463.27 411.386 1465.38 412.835 1467.18 414.63L1467.76 415.209C1468.9 416.351 1469.91 417.62 1470.77 418.991C1472.66 422.024 1473.76 425.485 1473.97 429.056L1474.46 437.318C1474.48 437.649 1474.43 437.979 1474.3 438.286C1473.65 439.915 1475.03 441.629 1476.76 441.341L1477.5 441.217C1477.72 441.181 1477.94 441.172 1478.17 441.19L1484.39 441.709C1486.68 441.899 1488.89 442.588 1490.89 443.726C1492.75 444.791 1494.38 446.227 1495.66 447.944L1496.01 448.41C1497.79 450.786 1498.98 453.555 1499.47 456.485L1499.97 459.513C1500.25 461.204 1500.4 462.915 1500.4 464.63V465.523C1500.4 470.949 1499.26 476.315 1497.05 481.274L1496.37 482.634C1495.73 483.911 1497.01 485.301 1498.34 484.771C1498.59 484.67 1498.87 484.637 1499.14 484.675L1501.56 485.022C1503.53 485.303 1505.38 486.126 1506.91 487.4L1507.33 487.746C1508.81 488.986 1510 490.551 1510.78 492.32L1511.38 493.657C1512.38 495.91 1512.53 498.45 1511.81 500.807C1510.49 505.091 1506.53 508.015 1502.05 508.015Z" fill="#77CB6F"/>
</g>
<defs>
<linearGradient id="paint0_linear_408_2553" x1="0" y1="0" x2="1440" y2="810" gradientUnits="userSpaceOnUse">
<stop stop-color="#14FF00"/>
<stop offset="1" stop-color="#0029FF"/>
</linearGradient>
<clipPath id="clip0_408_2553">
<rect width="1440" height="810" fill="white" transform="translate(0.5 0.28125)"/>
</clipPath>
</defs>
</svg>
