<svg width="300" height="100" viewBox="0 0 300 100" fill="none" xmlns="http://www.w3.org/2000/svg">
<rect x="3.5" y="3.5" width="293" height="92.1071" rx="22.75" fill="#CB5454" stroke="black" stroke-width="7"/>
<path d="M53.3674 60V34.3725H63.3815C68.4783 34.3725 70.7754 37.7823 70.7754 42.2689C70.7754 47.5093 67.7963 50.2371 62.3765 50.2371H60.0435V60H53.3674ZM60.0435 39.1821V45.4275H61.2997C62.9867 45.4275 63.884 44.4584 63.884 42.3048C63.884 40.1871 62.9867 39.1821 61.2997 39.1821H60.0435ZM72.897 60V34.3725H83.3419C88.4387 34.3725 90.3769 37.2439 90.3769 41.1921C90.3769 44.602 89.0488 46.8273 85.9979 47.2939V47.3657C89.2283 47.6529 90.1974 49.6988 90.1974 53.1086V55.298C90.1974 56.6261 90.1974 58.3489 90.5204 58.8514C90.6999 59.1386 90.8435 59.4257 91.2742 59.6411V60H84.1674C83.5213 58.6361 83.5213 56.1954 83.5213 55.1186V53.3957C83.5213 50.4884 82.947 49.7346 81.3319 49.7346H79.5731V60H72.897ZM79.5731 39.1821V45.2121H80.9012C82.8035 45.2121 83.7008 43.9918 83.7008 42.1612C83.7008 40.0795 82.8753 39.1821 80.8653 39.1821H79.5731ZM93.5074 60V34.3725H108.69V39.8282H100.183V44.2071H108.152V49.4475H100.183V54.5443H109.013V60H93.5074ZM127.677 41.7664H121.432V41.1562C121.432 39.6487 120.822 38.3925 119.53 38.3925C118.094 38.3925 117.448 39.5052 117.448 40.6537C117.448 45.7146 128.359 43.238 128.359 52.6061C128.359 58.0618 125.165 60.5025 119.278 60.5025C113.751 60.5025 110.664 58.6002 110.664 53.288V52.3907H117.125V53.0009C117.125 55.1904 118.022 55.98 119.314 55.98C120.678 55.98 121.468 54.9032 121.468 53.5034C121.468 48.4425 110.987 50.955 110.987 41.8741C110.987 36.7055 113.751 33.87 119.386 33.87C125.201 33.87 127.677 36.2748 127.677 41.7664ZM146.956 41.7664H140.71V41.1562C140.71 39.6487 140.1 38.3925 138.808 38.3925C137.372 38.3925 136.726 39.5052 136.726 40.6537C136.726 45.7146 147.638 43.238 147.638 52.6061C147.638 58.0618 144.443 60.5025 138.557 60.5025C133.029 60.5025 129.943 58.6002 129.943 53.288V52.3907H136.403V53.0009C136.403 55.1904 137.301 55.98 138.593 55.98C139.957 55.98 140.746 54.9032 140.746 53.5034C140.746 48.4425 130.266 50.955 130.266 41.8741C130.266 36.7055 133.029 33.87 138.665 33.87C144.479 33.87 146.956 36.2748 146.956 41.7664ZM175.558 41.7664H169.313V41.1562C169.313 39.6487 168.702 38.3925 167.41 38.3925C165.975 38.3925 165.328 39.5052 165.328 40.6537C165.328 45.7146 176.24 43.238 176.24 52.6061C176.24 58.0618 173.045 60.5025 167.159 60.5025C161.631 60.5025 158.545 58.6002 158.545 53.288V52.3907H165.005V53.0009C165.005 55.1904 165.903 55.98 167.195 55.98C168.559 55.98 169.348 54.9032 169.348 53.5034C169.348 48.4425 158.868 50.955 158.868 41.8741C158.868 36.7055 161.631 33.87 167.267 33.87C173.081 33.87 175.558 36.2748 175.558 41.7664ZM181.987 60V40.0436H176.962V34.3725H193.688V40.0436H188.663V60H181.987ZM191.183 60L197.429 34.3725H205.828L212.073 60H204.966L204.284 55.5134H198.972L198.29 60H191.183ZM203.495 50.4884L201.664 39.6129H201.592L199.762 50.4884H203.495ZM213.174 60V34.3725H223.618C228.715 34.3725 230.653 37.2439 230.653 41.1921C230.653 44.602 229.325 46.8273 226.275 47.2939V47.3657C229.505 47.6529 230.474 49.6988 230.474 53.1086V55.298C230.474 56.6261 230.474 58.3489 230.797 58.8514C230.976 59.1386 231.12 59.4257 231.551 59.6411V60H224.444C223.798 58.6361 223.798 56.1954 223.798 55.1186V53.3957C223.798 50.4884 223.224 49.7346 221.608 49.7346H219.85V60H213.174ZM219.85 39.1821V45.2121H221.178C223.08 45.2121 223.977 43.9918 223.977 42.1612C223.977 40.0795 223.152 39.1821 221.142 39.1821H219.85ZM236.527 60V40.0436H231.502V34.3725H248.228V40.0436H243.203V60H236.527Z" fill="white"/>
</svg>
