<svg width="332" height="80" viewBox="0 0 332 80" fill="none" xmlns="http://www.w3.org/2000/svg">
<circle cx="40" cy="40" r="36.5" fill="white" stroke="black" stroke-width="7"/>
<path d="M29.0657 25.5475H36.7382V36.85H36.8207L42.5132 25.5475H50.6807L43.2557 38.4175L51.5882 55H42.8432L38.3469 44.7287L36.7382 47.2037V55H29.0657V25.5475Z" fill="black"/>
<circle cx="166" cy="40" r="36.5" fill="white" stroke="black" stroke-width="7"/>
<path d="M156.274 25.5475H174.671V31.6525H163.946V36.8912H167.411C170.464 36.8912 172.76 37.62 174.3 39.0775C175.84 40.535 176.61 42.7762 176.61 45.8012C176.61 47.6162 176.335 49.115 175.785 50.2975C175.263 51.48 174.561 52.4287 173.681 53.1437C172.801 53.8312 171.798 54.3125 170.67 54.5875C169.57 54.8625 168.443 55 167.288 55H156.274V25.5475ZM165.431 49.4312C166.669 49.4312 167.521 49.1562 167.989 48.6062C168.484 48.0562 168.731 47.1487 168.731 45.8837C168.731 44.4812 168.429 43.56 167.824 43.12C167.246 42.68 166.435 42.46 165.39 42.46H163.946V49.4312H165.431Z" fill="black"/>
<circle cx="292" cy="40" r="36.5" fill="white" stroke="black" stroke-width="7"/>
<path d="M292.39 55.4538C290.245 55.4538 288.485 55.1925 287.11 54.67C285.735 54.12 284.662 53.24 283.892 52.03C283.122 50.82 282.586 49.2525 282.283 47.3275C282.008 45.4025 281.871 43.0512 281.871 40.2737C281.871 37.4687 282.036 35.09 282.366 33.1375C282.723 31.185 283.315 29.6037 284.14 28.3937C284.965 27.1837 286.051 26.3175 287.398 25.795C288.746 25.245 290.41 24.97 292.39 24.97C294.122 24.97 295.593 25.19 296.803 25.63C298.013 26.07 298.99 26.7025 299.732 27.5275C300.502 28.325 301.052 29.3012 301.382 30.4562C301.74 31.5837 301.918 32.8625 301.918 34.2925V36.1487H294.493V34.4987C294.493 32.8212 294.328 31.68 293.998 31.075C293.668 30.47 293.132 30.1675 292.39 30.1675C291.812 30.1675 291.345 30.3187 290.987 30.6212C290.657 30.9237 290.396 31.46 290.203 32.23C290.038 33 289.928 34.045 289.873 35.365C289.818 36.6575 289.791 38.2937 289.791 40.2737C289.791 42.2537 289.818 43.9037 289.873 45.2237C289.928 46.5162 290.038 47.5475 290.203 48.3175C290.396 49.0875 290.657 49.6237 290.987 49.9262C291.345 50.2287 291.812 50.38 292.39 50.38C292.857 50.38 293.242 50.27 293.545 50.05C293.847 49.8025 294.081 49.4037 294.246 48.8537C294.411 48.3037 294.521 47.575 294.576 46.6675C294.658 45.7325 294.7 44.5637 294.7 43.1612H302.125V45.3475C302.125 47.4375 301.85 49.1425 301.3 50.4625C300.75 51.755 300.021 52.7725 299.113 53.515C298.206 54.2575 297.161 54.7662 295.978 55.0413C294.823 55.3163 293.627 55.4538 292.39 55.4538Z" fill="black"/>
</svg>
