<svg width="80" height="80" viewBox="0 0 80 80" fill="none" xmlns="http://www.w3.org/2000/svg">
<circle cx="40" cy="40" r="36.5" fill="white" stroke="black" stroke-width="7"/>
<path d="M40.3896 55.4538C38.2446 55.4538 36.4846 55.1925 35.1096 54.67C33.7346 54.12 32.6621 53.24 31.8921 52.03C31.1221 50.82 30.5859 49.2525 30.2834 47.3275C30.0084 45.4025 29.8709 43.0512 29.8709 40.2737C29.8709 37.4687 30.0359 35.09 30.3659 33.1375C30.7234 31.185 31.3146 29.6037 32.1396 28.3937C32.9646 27.1837 34.0509 26.3175 35.3984 25.795C36.7459 25.245 38.4096 24.97 40.3896 24.97C42.1221 24.97 43.5934 25.19 44.8034 25.63C46.0134 26.07 46.9896 26.7025 47.7321 27.5275C48.5021 28.325 49.0521 29.3012 49.3821 30.4562C49.7396 31.5837 49.9184 32.8625 49.9184 34.2925V36.1487H42.4934V34.4987C42.4934 32.8212 42.3284 31.68 41.9984 31.075C41.6684 30.47 41.1321 30.1675 40.3896 30.1675C39.8121 30.1675 39.3446 30.3187 38.9871 30.6212C38.6571 30.9237 38.3959 31.46 38.2034 32.23C38.0384 33 37.9284 34.045 37.8734 35.365C37.8184 36.6575 37.7909 38.2937 37.7909 40.2737C37.7909 42.2537 37.8184 43.9037 37.8734 45.2237C37.9284 46.5162 38.0384 47.5475 38.2034 48.3175C38.3959 49.0875 38.6571 49.6237 38.9871 49.9262C39.3446 50.2287 39.8121 50.38 40.3896 50.38C40.8571 50.38 41.2421 50.27 41.5446 50.05C41.8471 49.8025 42.0809 49.4037 42.2459 48.8537C42.4109 48.3037 42.5209 47.575 42.5759 46.6675C42.6584 45.7325 42.6996 44.5637 42.6996 43.1612H50.1246V45.3475C50.1246 47.4375 49.8496 49.1425 49.2996 50.4625C48.7496 51.755 48.0209 52.7725 47.1134 53.515C46.2059 54.2575 45.1609 54.7662 43.9784 55.0413C42.8234 55.3163 41.6271 55.4538 40.3896 55.4538Z" fill="black"/>
</svg>
