<svg width="300" height="100" viewBox="0 0 300 100" fill="none" xmlns="http://www.w3.org/2000/svg">
<rect x="2.67857" y="2.67857" width="294.643" height="93.75" rx="23.5714" fill="#CB5454" stroke="black" stroke-width="5.35714"/>
<path d="M26.9837 63.5V37.3961H38.2512C40.1886 37.3961 41.8838 37.7785 43.3369 38.5432C44.7899 39.308 45.9201 40.3829 46.7273 41.768C47.5346 43.1531 47.9382 44.7718 47.9382 46.6242C47.9382 48.4937 47.5218 50.1124 46.6891 51.4805C45.8649 52.8486 44.705 53.9022 43.2094 54.6415C41.7224 55.3808 39.9847 55.7504 37.9963 55.7504H31.2664V50.2441H36.5687C37.4015 50.2441 38.111 50.0997 38.6973 49.8107C39.2921 49.5133 39.7468 49.0927 40.0612 48.5489C40.3841 48.0051 40.5455 47.3635 40.5455 46.6242C40.5455 45.8765 40.3841 45.2392 40.0612 44.7123C39.7468 44.177 39.2921 43.7691 38.6973 43.4887C38.111 43.1998 37.4015 43.0553 36.5687 43.0553H34.0705V63.5H26.9837ZM50.5384 63.5V37.3961H61.8059C63.7433 37.3961 65.4385 37.7487 66.8916 38.454C68.3446 39.1593 69.4748 40.1747 70.282 41.5003C71.0893 42.8259 71.4929 44.4149 71.4929 46.2673C71.4929 48.1368 71.0765 49.713 70.2438 50.9961C69.4195 52.2792 68.2597 53.2479 66.7641 53.9022C65.2771 54.5565 63.5394 54.8837 61.551 54.8837H54.8211V49.3774H60.1234C60.9562 49.3774 61.6657 49.2754 62.252 49.0715C62.8468 48.859 63.3014 48.5234 63.6158 48.0645C63.9387 47.6057 64.1002 47.0066 64.1002 46.2673C64.1002 45.5196 63.9387 44.912 63.6158 44.4447C63.3014 43.9688 62.8468 43.6204 62.252 43.3995C61.6657 43.1701 60.9562 43.0553 60.1234 43.0553H57.6252V63.5H50.5384ZM65.8337 51.5187L72.3596 63.5H64.661L58.288 51.5187H65.8337ZM74.5137 63.5V37.3961H93.3269V43.1063H81.6005V47.5929H92.3582V53.3032H81.6005V57.7898H93.2759V63.5H74.5137ZM110.913 45.5536C110.845 44.7038 110.527 44.041 109.957 43.5652C109.396 43.0893 108.542 42.8514 107.395 42.8514C106.665 42.8514 106.065 42.9406 105.598 43.1191C105.139 43.289 104.799 43.5227 104.578 43.8201C104.358 44.1175 104.243 44.4574 104.234 44.8398C104.217 45.1542 104.273 45.4389 104.4 45.6938C104.536 45.9402 104.748 46.1654 105.037 46.3693C105.326 46.5648 105.696 46.7432 106.146 46.9047C106.597 47.0661 107.132 47.2106 107.752 47.338L109.894 47.7969C111.338 48.1028 112.574 48.5064 113.603 49.0077C114.631 49.5091 115.472 50.0997 116.126 50.7794C116.781 51.4507 117.261 52.207 117.567 53.0482C117.881 53.8895 118.043 54.8072 118.051 55.8014C118.043 57.5179 117.613 58.9709 116.764 60.1605C115.914 61.3502 114.699 62.2551 113.118 62.8754C111.546 63.4958 109.656 63.8059 107.446 63.8059C105.178 63.8059 103.198 63.4703 101.507 62.799C99.8242 62.1277 98.5156 61.0952 97.5809 59.7017C96.6547 58.2996 96.1873 56.5067 96.1788 54.3228H102.909C102.951 55.1216 103.151 55.7929 103.508 56.3367C103.865 56.8806 104.366 57.2927 105.012 57.5731C105.666 57.8535 106.444 57.9937 107.344 57.9937C108.101 57.9937 108.734 57.9002 109.243 57.7133C109.753 57.5264 110.14 57.2672 110.403 56.9358C110.667 56.6044 110.803 56.2263 110.811 55.8014C110.803 55.402 110.671 55.0536 110.416 54.7562C110.17 54.4503 109.762 54.1784 109.193 53.9405C108.623 53.694 107.854 53.4646 106.885 53.2522L104.285 52.6914C101.974 52.19 100.151 51.353 98.8172 50.1804C97.4916 48.9993 96.8331 47.389 96.8416 45.3496C96.8331 43.6926 97.275 42.2438 98.1672 41.0032C99.0679 39.7541 100.313 38.7812 101.902 38.0844C103.499 37.3876 105.33 37.0392 107.395 37.0392C109.503 37.0392 111.325 37.3919 112.863 38.0971C114.401 38.8024 115.587 39.7966 116.42 41.0797C117.261 42.3543 117.686 43.8456 117.694 45.5536H110.913ZM134.818 45.5536C134.75 44.7038 134.432 44.041 133.862 43.5652C133.302 43.0893 132.448 42.8514 131.301 42.8514C130.57 42.8514 129.971 42.9406 129.503 43.1191C129.044 43.289 128.705 43.5227 128.484 43.8201C128.263 44.1175 128.148 44.4574 128.139 44.8398C128.123 45.1542 128.178 45.4389 128.305 45.6938C128.441 45.9402 128.654 46.1654 128.942 46.3693C129.231 46.5648 129.601 46.7432 130.051 46.9047C130.502 47.0661 131.037 47.2106 131.657 47.338L133.799 47.7969C135.243 48.1028 136.48 48.5064 137.508 49.0077C138.536 49.5091 139.377 50.0997 140.032 50.7794C140.686 51.4507 141.166 52.207 141.472 53.0482C141.786 53.8895 141.948 54.8072 141.956 55.8014C141.948 57.5179 141.519 58.9709 140.669 60.1605C139.819 61.3502 138.604 62.2551 137.023 62.8754C135.451 63.4958 133.561 63.8059 131.352 63.8059C129.083 63.8059 127.103 63.4703 125.412 62.799C123.729 62.1277 122.421 61.0952 121.486 59.7017C120.56 58.2996 120.092 56.5067 120.084 54.3228H126.814C126.856 55.1216 127.056 55.7929 127.413 56.3367C127.77 56.8806 128.271 57.2927 128.917 57.5731C129.571 57.8535 130.349 57.9937 131.25 57.9937C132.006 57.9937 132.639 57.9002 133.149 57.7133C133.659 57.5264 134.045 57.2672 134.309 56.9358C134.572 56.6044 134.708 56.2263 134.716 55.8014C134.708 55.402 134.576 55.0536 134.321 54.7562C134.075 54.4503 133.667 54.1784 133.098 53.9405C132.528 53.694 131.759 53.4646 130.791 53.2522L128.19 52.6914C125.879 52.19 124.057 51.353 122.722 50.1804C121.397 48.9993 120.738 47.389 120.747 45.3496C120.738 43.6926 121.18 42.2438 122.072 41.0032C122.973 39.7541 124.218 38.7812 125.807 38.0844C127.404 37.3876 129.236 37.0392 131.301 37.0392C133.408 37.0392 135.231 37.3919 136.769 38.0971C138.307 38.8024 139.492 39.7966 140.325 41.0797C141.166 42.3543 141.591 43.8456 141.599 45.5536H134.818ZM165.874 45.5536C165.806 44.7038 165.488 44.041 164.918 43.5652C164.357 43.0893 163.503 42.8514 162.356 42.8514C161.625 42.8514 161.026 42.9406 160.559 43.1191C160.1 43.289 159.76 43.5227 159.539 43.8201C159.318 44.1175 159.204 44.4574 159.195 44.8398C159.178 45.1542 159.233 45.4389 159.361 45.6938C159.497 45.9402 159.709 46.1654 159.998 46.3693C160.287 46.5648 160.657 46.7432 161.107 46.9047C161.558 47.0661 162.093 47.2106 162.713 47.338L164.854 47.7969C166.299 48.1028 167.535 48.5064 168.564 49.0077C169.592 49.5091 170.433 50.0997 171.087 50.7794C171.742 51.4507 172.222 52.207 172.528 53.0482C172.842 53.8895 173.003 54.8072 173.012 55.8014C173.003 57.5179 172.574 58.9709 171.725 60.1605C170.875 61.3502 169.66 62.2551 168.079 62.8754C166.507 63.4958 164.617 63.8059 162.407 63.8059C160.138 63.8059 158.159 63.4703 156.468 62.799C154.785 62.1277 153.477 61.0952 152.542 59.7017C151.616 58.2996 151.148 56.5067 151.14 54.3228H157.87C157.912 55.1216 158.112 55.7929 158.469 56.3367C158.826 56.8806 159.327 57.2927 159.973 57.5731C160.627 57.8535 161.405 57.9937 162.305 57.9937C163.062 57.9937 163.695 57.9002 164.204 57.7133C164.714 57.5264 165.101 57.2672 165.364 56.9358C165.628 56.6044 165.764 56.2263 165.772 55.8014C165.764 55.402 165.632 55.0536 165.377 54.7562C165.131 54.4503 164.723 54.1784 164.153 53.9405C163.584 53.694 162.815 53.4646 161.846 53.2522L159.246 52.6914C156.935 52.19 155.112 51.353 153.778 50.1804C152.453 48.9993 151.794 47.389 151.803 45.3496C151.794 43.6926 152.236 42.2438 153.128 41.0032C154.029 39.7541 155.274 38.7812 156.863 38.0844C158.46 37.3876 160.291 37.0392 162.356 37.0392C164.464 37.0392 166.286 37.3919 167.824 38.0971C169.362 38.8024 170.548 39.7966 171.38 41.0797C172.222 42.3543 172.647 43.8456 172.655 45.5536H165.874ZM174.994 43.1063V37.3961H197.682V43.1063H189.83V63.5H182.846V43.1063H174.994ZM203.835 63.5H196.187L204.804 37.3961H214.491L223.107 63.5H215.459L209.749 44.5849H209.545L203.835 63.5ZM202.408 53.2012H216.785V58.5036H202.408V53.2012ZM225.621 63.5V37.3961H236.889C238.826 37.3961 240.521 37.7487 241.974 38.454C243.427 39.1593 244.558 40.1747 245.365 41.5003C246.172 42.8259 246.576 44.4149 246.576 46.2673C246.576 48.1368 246.159 49.713 245.327 50.9961C244.502 52.2792 243.342 53.2479 241.847 53.9022C240.36 54.5565 238.622 54.8837 236.634 54.8837H229.904V49.3774H235.206C236.039 49.3774 236.749 49.2754 237.335 49.0715C237.93 48.859 238.384 48.5234 238.699 48.0645C239.022 47.6057 239.183 47.0066 239.183 46.2673C239.183 45.5196 239.022 44.912 238.699 44.4447C238.384 43.9688 237.93 43.6204 237.335 43.3995C236.749 43.1701 236.039 43.0553 235.206 43.0553H232.708V63.5H225.621ZM240.916 51.5187L247.442 63.5H239.744L233.371 51.5187H240.916ZM248.883 43.1063V37.3961H271.571V43.1063H263.719V63.5H256.734V43.1063H248.883Z" fill="white"/>
</svg>
