<svg width="80" height="80" viewBox="0 0 80 80" fill="none" xmlns="http://www.w3.org/2000/svg">
<circle cx="40" cy="40" r="36.5" fill="white" stroke="black" stroke-width="7"/>
<path d="M30.2739 25.5475H48.6714V31.6525H37.9464V36.8912H41.4114C44.4639 36.8912 46.7601 37.62 48.3001 39.0775C49.8401 40.535 50.6101 42.7762 50.6101 45.8012C50.6101 47.6162 50.3351 49.115 49.7851 50.2975C49.2626 51.48 48.5614 52.4287 47.6814 53.1437C46.8014 53.8312 45.7976 54.3125 44.6701 54.5875C43.5701 54.8625 42.4426 55 41.2876 55H30.2739V25.5475ZM39.4314 49.4312C40.6689 49.4312 41.5214 49.1562 41.9889 48.6062C42.4839 48.0562 42.7314 47.1487 42.7314 45.8837C42.7314 44.4812 42.4289 43.56 41.8239 43.12C41.2464 42.68 40.4351 42.46 39.3901 42.46H37.9464V49.4312H39.4314Z" fill="black"/>
</svg>
