<svg width="1440" height="810" viewBox="0 0 1440 810" fill="none" xmlns="http://www.w3.org/2000/svg">
<rect width="1440" height="810" fill="#B0E7E2"/>
<path d="M111.688 316.453V357.004H158.333C160.404 357.004 162.083 358.683 162.083 360.754V376.064C162.083 378.135 160.404 379.814 158.333 379.814H111.688V549.62H131.875C133.947 549.62 135.625 551.299 135.625 553.37V569.948C135.625 572.019 133.947 573.698 131.875 573.698H111.688V653.532H1313.61V607.912H1359C1361.07 607.912 1362.75 606.233 1362.75 604.162V586.318C1362.75 584.247 1361.07 582.568 1359 582.568H1313.61V559.758H1303.51C1301.43 559.758 1299.76 558.079 1299.76 556.008V540.698C1299.76 538.627 1301.43 536.948 1303.51 536.948H1313.61V403.891H1333.59C1338.56 403.891 1342.59 399.861 1342.59 394.891V388.814C1342.59 383.843 1338.56 379.814 1333.59 379.814H1313.61V337.995H1333.59C1338.56 337.995 1342.59 333.966 1342.59 328.995V322.918C1342.59 317.948 1338.56 313.918 1333.59 313.918H1313.61V211.529C1313.61 115.507 1235.77 37.6653 1139.75 37.6653V31.2259C1139.75 27.0838 1136.39 23.7259 1132.25 23.7259H1089.3C1085.15 23.7259 1081.8 27.0838 1081.8 31.2259V37.6653H895.334V27.4243C895.334 23.2821 891.976 19.9243 887.834 19.9243H847.399C843.257 19.9243 839.899 23.2821 839.899 27.4242V37.6653H721.47V0.916016H710.131V37.6653H596.742V27.4243C596.742 23.2821 593.384 19.9243 589.242 19.9243H551.327C547.185 19.9243 543.827 23.2821 543.827 27.4242V37.6653H422.878V27.4243C422.878 23.2821 419.521 19.9243 415.378 19.9243H377.463C373.321 19.9243 369.963 23.2821 369.963 27.4242V37.6653H357.365V27.4243C357.365 23.2821 354.007 19.9243 349.865 19.9243H309.43C305.288 19.9243 301.93 23.2821 301.93 27.4242V37.6653C196.862 37.6653 111.688 122.84 111.688 227.907V292.376H95.25C91.1079 292.376 87.75 295.733 87.75 299.876V308.953C87.75 313.095 91.1079 316.453 95.25 316.453H111.688Z" fill="#84B2B2"/>
<path d="M1440 653H0V810.006H1440V653Z" fill="#828174"/>
<rect x="286.5" y="68.0547" width="101.25" height="38.4727" rx="9" fill="#97CDCF"/>
<rect x="441.75" y="185.735" width="101.25" height="38.4727" rx="9" fill="#97CDCF"/>
<rect x="141" y="406.011" width="101.25" height="38.4727" rx="9" fill="#97CDCF"/>
<rect x="947.25" y="326.803" width="101.25" height="38.4727" rx="9" fill="#97CDCF"/>
<rect x="198" y="164.613" width="101.25" height="38.4727" rx="9" fill="#97CDCF"/>
<rect x="864.75" y="56.7393" width="101.25" height="38.4727" rx="9" fill="#97CDCF"/>
<rect x="1077" y="133.685" width="101.25" height="38.4727" rx="9" fill="#97CDCF"/>
<rect x="390.75" y="332.083" width="101.25" height="38.4727" rx="9" fill="#97CDCF"/>
<path d="M0 653.443H26.129H1440V673.057H0V653.443Z" fill="#40351C"/>
<path d="M813.505 371.125H734.25V654.248H813.505V371.125Z" fill="#5C7571"/>
<rect x="813.5" y="371.125" width="120.249" height="283.123" fill="#7F9F9C"/>
<rect x="827.16" y="384.863" width="90.1869" height="255.635" fill="#5C7571"/>
<path d="M1285.4 653.931V481.164H1046.55V536.939V653.931H1285.4Z" fill="#F95850"/>
<path d="M1197 650.639V600.639H1062.75V650.639H1197Z" fill="#ED695D"/>
<path d="M1197 594.001V544.001H1063V594.001H1197Z" fill="#E46A5F"/>
<path d="M1197 537.483V487.483H1062.75V537.483H1197Z" fill="#ED695D"/>
<path d="M1207.57 481.164H1285.4V653.931H1207.57V481.164Z" fill="#A93D2D"/>
<path d="M1053.32 459.571H1278.6C1285.31 459.571 1290.75 465.01 1290.75 471.719C1290.75 478.428 1285.31 483.867 1278.6 483.867H1053.32C1046.61 483.867 1041.17 478.428 1041.17 471.719C1041.17 465.01 1046.61 459.571 1053.32 459.571Z" fill="#FBD1BB"/>
<path d="M1051.97 459.571H1279.95C1285.92 459.571 1290.75 464.406 1290.75 470.369H1041.17C1041.17 464.406 1046 459.571 1051.97 459.571Z" fill="#FBFAE1"/>
<rect width="80.5104" height="2.69949" rx="1.34974" transform="matrix(-1 0 0 1 1169.94 579.417)" fill="#8A281D"/>
<rect width="80.5104" height="2.69949" rx="1.34974" transform="matrix(-1 0 0 1 1170.26 524.447)" fill="#8A281D"/>
<rect width="80.5104" height="2.69949" rx="1.34974" transform="matrix(-1 0 0 1 1169.95 637.733)" fill="#8A281D"/>
<rect x="385.875" y="112.791" width="660" height="38.6716" rx="19.2241" fill="#67593E"/>
<rect x="385.875" y="112.791" width="660" height="38.6716" rx="19.2241" fill="#67593E"/>
<rect x="385.875" y="112.791" width="483.788" height="38.6716" rx="19.2241" fill="#9F8876"/>
<rect x="472.289" y="112.791" width="483.788" height="38.6716" rx="19.2241" fill="#67593E"/>
<rect x="472.289" y="112.791" width="483.788" height="38.6716" rx="19.2241" fill="#8E7561"/>
<path d="M408.199 151.454H1016.94C1016.94 165.693 1005.39 177.235 991.155 177.235H433.98C419.742 177.235 408.199 165.693 408.199 151.454Z" fill="#FDFFE7"/>
<path d="M709.438 3.20402C709.438 1.43449 710.872 0 712.642 0H719.049C720.819 0 722.253 1.43449 722.253 3.20402V112.792H709.438V3.20402Z" fill="#584739"/>
<path d="M219.102 653.176V480.408H457.949V536.183V653.176H219.102Z" fill="#F95850"/>
<path d="M308 599V532H442V599H308Z" fill="#C55047"/>
<path d="M308 653V599H442V653H308Z" fill="#ED695D"/>
<path d="M307.68 491.204H358.67V531.696H307.68V491.204Z" fill="#A93D2D"/>
<path d="M307.68 531.694H441.864V547.891H307.68V531.694Z" fill="#BD4439"/>
<path d="M347.949 537.095V491.204H487.5V537.095H347.949Z" fill="#ED695D"/>
<path d="M296.928 480.408H219.102V653.176H296.928V480.408Z" fill="#A93D2D"/>
<path d="M451.184 458.816H225.898C219.189 458.816 213.75 464.255 213.75 470.964C213.75 477.673 219.189 483.112 225.898 483.112H451.184C457.893 483.112 463.332 477.673 463.332 470.964C463.332 464.255 457.893 458.816 451.184 458.816Z" fill="#FBD1BB"/>
<path d="M452.534 458.816H224.548C218.584 458.816 213.75 463.651 213.75 469.614H463.332C463.332 463.651 458.498 458.816 452.534 458.816Z" fill="#FBFAE1"/>
<rect x="335" y="584" width="80.5104" height="2.69949" rx="1.34974" fill="#8A281D"/>
<rect x="377.473" y="515.499" width="80.5104" height="2.69949" rx="1.34974" fill="#8A281D"/>
<rect x="334.555" y="636.979" width="80.5104" height="2.69949" rx="1.34974" fill="#8A281D"/>
<path d="M592.532 436.186H531.75V653.319H592.532V436.186Z" fill="#5C7571"/>
<rect x="592.531" y="436.186" width="92.2216" height="217.133" fill="#7F9F9C"/>
<rect x="603" y="446.722" width="69.1662" height="196.052" fill="#5C7571"/>
<rect x="554.664" y="401.077" width="12.51" height="35.6507" fill="#4A5D59"/>
<path d="M550.5 401.077L550.5 390.592L600.54 390.592L600.54 386.397L606.795 386.397L613.05 386.397L613.05 390.592L654.75 390.592L654.75 401.077L550.5 401.077Z" fill="#576C68"/>
<rect x="567.184" y="436.727" width="35.6507" height="81.315" transform="rotate(-90 567.184 436.727)" fill="#6D8A85"/>
<rect x="583.867" y="409.466" width="50.04" height="16.7768" fill="#98C2C1"/>
<path opacity="0.38" d="M588.031 415.757H619.306V419.951H608.624V417.704H605.999V419.951H600.749V419.213H597.749V419.951H595.124V418.081H592.499V419.951H588.031V415.757Z" fill="#6A8886"/>
<path d="M217.355 373.711V263.988H465.334V373.711C465.334 380.327 459.97 385.69 453.354 385.69H229.335C222.719 385.69 217.355 380.327 217.355 373.711Z" fill="#98C5C0"/>
<path d="M207.75 251.34V255.621C207.75 261.575 212.577 266.403 218.532 266.403H457.438C465.756 266.403 472.5 259.659 472.5 251.34C472.5 243.022 465.756 236.278 457.438 236.278H222.812C214.494 236.278 207.75 243.022 207.75 251.34Z" fill="#80A09D"/>
<path d="M207.812 256.756H471.51L469.872 259.922C467.814 263.898 463.71 266.396 459.232 266.396H218.635C213.104 266.396 208.45 262.251 207.812 256.756Z" fill="#688B87"/>
<path d="M406.974 290.846V278.385C406.974 277.113 405.417 276.498 404.548 277.427L398.354 284.052C397.492 284.974 397.012 286.19 397.012 287.453V292.09C397.012 294.938 398.092 297.681 400.034 299.765C400.54 300.308 401.098 300.799 401.701 301.232L406.974 305.021V340.751C406.974 344.036 405.726 347.198 403.482 349.597C399.629 353.718 398.887 359.86 401.647 364.78L404.569 369.989C405.216 371.142 406.974 370.683 406.974 369.361V361.814C406.974 358.889 409.345 356.517 412.27 356.517C415.195 356.517 417.566 358.889 417.566 361.814V369.547C417.566 370.87 419.31 371.351 419.988 370.215L423.133 364.943C426.09 359.985 425.312 353.654 421.242 349.56C418.888 347.192 417.566 343.989 417.566 340.65V305.021L422.863 300.581L423.825 299.775C426.572 297.472 428.159 294.071 428.159 290.487V287.672C428.159 286.273 427.605 284.93 426.618 283.938L420.07 277.352C419.149 276.425 417.566 277.077 417.566 278.385V290.846C417.566 293.771 415.195 296.142 412.27 296.142C409.345 296.142 406.974 293.771 406.974 290.846Z" fill="#8BAFAB"/>
<path d="M365.496 293.442V281.939C365.496 280.766 364.059 280.198 363.258 281.056L357.54 287.171C356.744 288.022 356.301 289.145 356.301 290.311V294.59C356.301 297.22 357.298 299.752 359.091 301.676C359.558 302.177 360.073 302.63 360.629 303.03L365.496 306.527V339.508C365.496 342.54 364.344 345.459 362.274 347.674C358.717 351.478 358.032 357.147 360.58 361.689L363.277 366.497C363.874 367.562 365.496 367.138 365.496 365.917V358.951C365.496 356.251 367.685 354.062 370.385 354.062C373.085 354.062 375.274 356.251 375.274 358.951V366.09C375.274 367.311 376.884 367.755 377.51 366.706L380.412 361.84C383.142 357.263 382.424 351.419 378.667 347.64C376.494 345.454 375.274 342.497 375.274 339.415V306.527L380.163 302.429L381.051 301.684C383.587 299.559 385.052 296.42 385.052 293.111V290.513C385.052 289.221 384.541 287.982 383.63 287.066L377.586 280.986C376.735 280.13 375.274 280.733 375.274 281.939V293.442C375.274 296.142 373.085 298.331 370.385 298.331C367.685 298.331 365.496 296.142 365.496 293.442Z" fill="#8BAFAB"/>
<path d="M328.8 297.028V286.484C328.8 285.408 327.483 284.888 326.748 285.674L321.507 291.279C320.777 292.06 320.371 293.088 320.371 294.157V298.08C320.371 300.491 321.285 302.812 322.929 304.575C323.357 305.034 323.829 305.45 324.339 305.816L328.8 309.022V339.255C328.8 342.035 327.745 344.71 325.846 346.74C322.586 350.228 321.958 355.424 324.293 359.588L326.766 363.995C327.313 364.971 328.8 364.582 328.8 363.463V357.078C328.8 354.603 330.807 352.596 333.282 352.596C335.757 352.596 337.763 354.603 337.763 357.078V363.621C337.763 364.741 339.239 365.148 339.813 364.186L342.473 359.726C344.976 355.531 344.317 350.173 340.873 346.709C338.881 344.705 337.763 341.995 337.763 339.17V309.022L342.245 305.266L343.059 304.583C345.384 302.635 346.726 299.757 346.726 296.724V294.342C346.726 293.158 346.258 292.023 345.423 291.183L339.882 285.61C339.102 284.825 337.763 285.377 337.763 286.484V297.028C337.763 299.503 335.757 301.509 333.282 301.509C330.807 301.509 328.8 299.503 328.8 297.028Z" fill="#8BAFAB"/>
<path d="M294.511 300.615V291.03C294.511 290.052 293.313 289.579 292.645 290.293L287.88 295.389C287.217 296.099 286.848 297.034 286.848 298.006V301.572C286.848 303.764 287.678 305.873 289.173 307.477C289.562 307.894 289.991 308.272 290.455 308.605L294.511 311.519V339.004C294.511 341.531 293.551 343.963 291.825 345.809C288.861 348.979 288.29 353.703 290.413 357.488L292.661 361.495C293.159 362.382 294.511 362.029 294.511 361.011V355.206C294.511 352.956 296.335 351.132 298.585 351.132C300.835 351.132 302.659 352.956 302.659 355.206V361.155C302.659 362.173 304 362.542 304.522 361.668L306.941 357.613C309.216 353.8 308.617 348.929 305.486 345.78C303.675 343.959 302.659 341.495 302.659 338.926V311.519L306.733 308.104L307.473 307.484C309.586 305.713 310.807 303.097 310.807 300.339V298.174C310.807 297.098 310.381 296.065 309.622 295.302L304.585 290.235C303.876 289.522 302.659 290.024 302.659 291.03V300.615C302.659 302.865 300.835 304.689 298.585 304.689C296.335 304.689 294.511 302.865 294.511 300.615Z" fill="#8BAFAB"/>
<path d="M262.557 304.201V295.574C262.557 294.694 261.479 294.268 260.878 294.911L256.59 299.497C255.992 300.136 255.66 300.978 255.66 301.852V305.062C255.66 307.034 256.408 308.933 257.753 310.376C258.103 310.752 258.489 311.092 258.906 311.392L262.557 314.014V338.751C262.557 341.025 261.693 343.214 260.14 344.875C257.472 347.728 256.958 351.98 258.869 355.386L260.892 358.992C261.34 359.791 262.557 359.473 262.557 358.557V353.333C262.557 351.308 264.199 349.666 266.224 349.666C268.249 349.666 269.89 351.308 269.89 353.333V358.687C269.89 359.603 271.098 359.935 271.567 359.149L273.744 355.499C275.791 352.067 275.252 347.683 272.435 344.849C270.805 343.21 269.89 340.992 269.89 338.681V314.014L273.557 310.941L274.223 310.383C276.125 308.788 277.224 306.434 277.224 303.952V302.004C277.224 301.035 276.84 300.106 276.157 299.419L271.624 294.859C270.986 294.217 269.89 294.669 269.89 295.574V304.201C269.89 306.226 268.249 307.868 266.224 307.868C264.199 307.868 262.557 306.226 262.557 304.201Z" fill="#8BAFAB"/>
<path d="M1093.21 343.781C1093.21 337.639 1098.19 332.661 1104.33 332.661V317.751H1127.8C1130.53 317.751 1132.75 319.963 1132.75 322.693V332.661H1182.17C1190.36 332.661 1197 339.298 1197 347.486V444.569C1197 452.757 1190.36 459.394 1182.17 459.394H1108.03C1099.84 459.394 1093.21 452.757 1093.21 444.569V343.781Z" fill="#7EA19D"/>
<rect x="1120.4" y="367.437" width="46.954" height="59.6674" rx="4.94176" stroke="#6B928F" stroke-width="4.94176"/>
<path d="M1071 347.486C1071 339.298 1077.64 332.661 1085.83 332.661H1087.06V322.693C1087.06 319.963 1089.28 317.751 1092 317.751H1105.6C1108.33 317.751 1110.54 319.963 1110.54 322.693V332.661H1159.96C1168.15 332.661 1174.79 339.298 1174.79 347.486V444.569C1174.79 452.757 1168.15 459.394 1159.96 459.394H1085.83C1077.64 459.394 1071 452.757 1071 444.569V347.486Z" fill="#99C3C1"/>
<rect x="1098.21" y="367.437" width="46.954" height="59.6674" rx="4.94176" stroke="#6B928F" stroke-width="4.94176"/>
<rect width="4.95621" height="19.0414" transform="matrix(0.705143 -0.709065 0.705143 0.709065 1082.91 355.577)" fill="#6B928F"/>
<rect width="4.95621" height="19.0414" transform="matrix(-0.705135 -0.709074 -0.705135 0.709074 1159.59 355.576)" fill="#6B928F"/>
<rect width="4.95621" height="19.0414" transform="matrix(-0.705135 0.709074 -0.705135 -0.709074 1160.07 438.106)" fill="#6B928F"/>
<rect width="4.95621" height="19.0414" transform="matrix(0.705143 0.709065 0.705143 -0.709065 1083.36 438.107)" fill="#6B928F"/>
<rect x="977.535" y="277.065" width="264.463" height="18.4152" rx="6.10293" fill="#729591"/>
<path d="M977.535 272.937C977.535 269.566 980.268 266.834 983.638 266.834H1235.9C1239.27 266.834 1242 269.566 1242 272.937V285.249H983.638C980.268 285.249 977.535 282.517 977.535 279.146V272.937Z" fill="#6B8B86"/>
<rect x="945" y="266.836" width="264.463" height="18.4152" rx="6.10293" fill="#7CA09C"/>
<rect x="1058.91" y="199.313" width="42.7209" height="67.5224" fill="#647775"/>
<rect x="1062.98" y="203.402" width="34.5836" height="12.2768" fill="#5C7572"/>
<rect x="1038.56" y="199.314" width="20.3433" height="67.5224" fill="#84A4A1"/>
<rect x="1046.7" y="207.758" width="4.06866" height="50.6418" rx="1.5" fill="#6D8D8A"/>
<rect x="1022.3" y="207.499" width="16.2747" height="59.3379" fill="#6A8A87"/>
<rect x="1028.41" y="217.729" width="4.06866" height="36.8304" rx="1.5" fill="#84A4A1"/>
<path d="M1077.23 230.007H1071.13V219.776H1115.88V213.638H1130.12V219.776H1157.59H1185.05V230.007H1178.95V266.838H1077.23V230.007Z" fill="#6B8A85"/>
<path d="M1164.71 219.775H1178.95H1185.05V230.006H1178.95V266.836H1164.71V219.775Z" fill="#5E7774"/>
<rect x="1071.13" y="225.914" width="93.5792" height="4.09227" fill="#5C7B76"/>
<rect x="1164.71" y="225.916" width="20.3433" height="4.09227" fill="#57736E"/>
<rect x="1115.89" y="213.637" width="14.2403" height="6.1384" fill="#57736E"/>
</svg>
