<svg width="560" height="185" viewBox="0 0 560 185" fill="none" xmlns="http://www.w3.org/2000/svg">
<rect x="5" y="5" width="550" height="175" rx="44" fill="#CB5454" stroke="black" stroke-width="10"/>
<path d="M50.3735 118V69.2727H71.4062C75.0227 69.2727 78.1871 69.9865 80.8994 71.4141C83.6118 72.8416 85.7214 74.8481 87.2283 77.4336C88.7351 80.0191 89.4886 83.0407 89.4886 86.4986C89.4886 89.9882 88.7113 93.0098 87.1569 95.5636C85.6183 98.1173 83.4532 100.084 80.6615 101.464C77.8857 102.844 74.642 103.534 70.9303 103.534H58.3678V93.2557H68.2656C69.82 93.2557 71.1445 92.986 72.2389 92.4467C73.3492 91.8916 74.1978 91.1064 74.7847 90.0913C75.3875 89.0761 75.6888 87.8785 75.6888 86.4986C75.6888 85.1027 75.3875 83.9131 74.7847 82.9297C74.1978 81.9304 73.3492 81.169 72.2389 80.6456C71.1445 80.1063 69.82 79.8366 68.2656 79.8366H63.6022V118H50.3735ZM94.3423 118V69.2727H115.375C118.991 69.2727 122.156 69.931 124.868 71.2475C127.581 72.564 129.69 74.4595 131.197 76.9339C132.704 79.4084 133.457 82.3745 133.457 85.8324C133.457 89.322 132.68 92.2643 131.126 94.6594C129.587 97.0546 127.422 98.8628 124.63 100.084C121.854 101.306 118.611 101.916 114.899 101.916H102.337V91.6378H112.234C113.789 91.6378 115.113 91.4474 116.208 91.0668C117.318 90.6702 118.167 90.0437 118.753 89.1871C119.356 88.3306 119.658 87.2124 119.658 85.8324C119.658 84.4366 119.356 83.3024 118.753 82.43C118.167 81.5418 117.318 80.8915 116.208 80.479C115.113 80.0508 113.789 79.8366 112.234 79.8366H107.571V118H94.3423ZM122.893 95.6349L135.075 118H120.704L108.808 95.6349H122.893ZM139.096 118V69.2727H174.214V79.9318H152.325V88.3068H172.406V98.9659H152.325V107.341H174.119V118H139.096ZM207.042 84.5C206.915 82.9138 206.32 81.6766 205.257 80.7884C204.211 79.9001 202.616 79.456 200.475 79.456C199.111 79.456 197.993 79.6225 197.12 79.9556C196.264 80.2728 195.629 80.709 195.217 81.2642C194.805 81.8194 194.59 82.4538 194.575 83.1676C194.543 83.7545 194.646 84.2859 194.884 84.7617C195.138 85.2217 195.534 85.642 196.074 86.0227C196.613 86.3875 197.303 86.7206 198.143 87.022C198.984 87.3234 199.983 87.593 201.141 87.831L205.139 88.6875C207.835 89.2585 210.143 90.012 212.062 90.9478C213.981 91.8836 215.552 92.986 216.773 94.255C217.994 95.508 218.891 96.9197 219.462 98.4901C220.049 100.06 220.35 101.773 220.366 103.629C220.35 106.833 219.549 109.546 217.963 111.766C216.377 113.987 214.108 115.676 211.158 116.834C208.224 117.992 204.694 118.571 200.57 118.571C196.335 118.571 192.639 117.944 189.483 116.691C186.342 115.438 183.9 113.511 182.155 110.91C180.426 108.293 179.554 104.946 179.538 100.869H192.1C192.179 102.36 192.552 103.613 193.218 104.629C193.885 105.644 194.82 106.413 196.026 106.936C197.247 107.46 198.699 107.722 200.38 107.722C201.792 107.722 202.973 107.547 203.925 107.198C204.877 106.849 205.599 106.365 206.09 105.747C206.582 105.128 206.836 104.422 206.852 103.629C206.836 102.884 206.59 102.233 206.114 101.678C205.654 101.107 204.893 100.6 203.83 100.156C202.767 99.6955 201.332 99.2673 199.523 98.8707L194.67 97.8239C190.355 96.888 186.953 95.3256 184.463 93.1367C181.988 90.9319 180.759 87.9261 180.775 84.1193C180.759 81.0263 181.584 78.3219 183.249 76.006C184.931 73.6744 187.254 71.8582 190.221 70.5575C193.203 69.2569 196.621 68.6065 200.475 68.6065C204.409 68.6065 207.811 69.2648 210.682 70.5813C213.553 71.8978 215.766 73.7537 217.32 76.1488C218.891 78.5281 219.684 81.3118 219.7 84.5H207.042ZM251.665 84.5C251.538 82.9138 250.943 81.6766 249.881 80.7884C248.834 79.9001 247.24 79.456 245.098 79.456C243.734 79.456 242.616 79.6225 241.743 79.9556C240.887 80.2728 240.252 80.709 239.84 81.2642C239.428 81.8194 239.213 82.4538 239.198 83.1676C239.166 83.7545 239.269 84.2859 239.507 84.7617C239.761 85.2217 240.157 85.642 240.697 86.0227C241.236 86.3875 241.926 86.7206 242.767 87.022C243.607 87.3234 244.606 87.593 245.764 87.831L249.762 88.6875C252.458 89.2585 254.766 90.012 256.685 90.9478C258.604 91.8836 260.175 92.986 261.396 94.255C262.617 95.508 263.514 96.9197 264.085 98.4901C264.672 100.06 264.973 101.773 264.989 103.629C264.973 106.833 264.172 109.546 262.586 111.766C261 113.987 258.731 115.676 255.781 116.834C252.847 117.992 249.317 118.571 245.193 118.571C240.958 118.571 237.263 117.944 234.106 116.691C230.965 115.438 228.523 113.511 226.778 110.91C225.049 108.293 224.177 104.946 224.161 100.869H236.723C236.803 102.36 237.175 103.613 237.841 104.629C238.508 105.644 239.443 106.413 240.649 106.936C241.87 107.46 243.322 107.722 245.003 107.722C246.415 107.722 247.596 107.547 248.548 107.198C249.5 106.849 250.222 106.365 250.713 105.747C251.205 105.128 251.459 104.422 251.475 103.629C251.459 102.884 251.213 102.233 250.737 101.678C250.277 101.107 249.516 100.6 248.453 100.156C247.39 99.6955 245.955 99.2673 244.146 98.8707L239.293 97.8239C234.978 96.888 231.576 95.3256 229.086 93.1367C226.611 90.9319 225.382 87.9261 225.398 84.1193C225.382 81.0263 226.207 78.3219 227.872 76.006C229.554 73.6744 231.877 71.8582 234.844 70.5575C237.826 69.2569 241.244 68.6065 245.098 68.6065C249.032 68.6065 252.434 69.2648 255.305 70.5813C258.176 71.8978 260.389 73.7537 261.943 76.1488C263.514 78.5281 264.307 81.3118 264.323 84.5H251.665ZM309.636 84.5C309.509 82.9138 308.914 81.6766 307.851 80.7884C306.804 79.9001 305.21 79.456 303.069 79.456C301.705 79.456 300.587 79.6225 299.714 79.9556C298.858 80.2728 298.223 80.709 297.811 81.2642C297.398 81.8194 297.184 82.4538 297.168 83.1676C297.137 83.7545 297.24 84.2859 297.478 84.7617C297.731 85.2217 298.128 85.642 298.667 86.0227C299.207 86.3875 299.897 86.7206 300.737 87.022C301.578 87.3234 302.577 87.593 303.735 87.831L307.732 88.6875C310.429 89.2585 312.737 90.012 314.656 90.9478C316.575 91.8836 318.145 92.986 319.367 94.255C320.588 95.508 321.484 96.9197 322.055 98.4901C322.642 100.06 322.944 101.773 322.96 103.629C322.944 106.833 322.143 109.546 320.556 111.766C318.97 113.987 316.702 115.676 313.752 116.834C310.817 117.992 307.288 118.571 303.164 118.571C298.929 118.571 295.233 117.944 292.077 116.691C288.936 115.438 286.493 113.511 284.749 110.91C283.02 108.293 282.147 104.946 282.131 100.869H294.694C294.773 102.36 295.146 103.613 295.812 104.629C296.478 105.644 297.414 106.413 298.62 106.936C299.841 107.46 301.292 107.722 302.974 107.722C304.385 107.722 305.567 107.547 306.519 107.198C307.471 106.849 308.192 106.365 308.684 105.747C309.176 105.128 309.429 104.422 309.445 103.629C309.429 102.884 309.184 102.233 308.708 101.678C308.248 101.107 307.486 100.6 306.424 100.156C305.361 99.6955 303.925 99.2673 302.117 98.8707L297.264 97.8239C292.949 96.888 289.547 95.3256 287.056 93.1367C284.582 90.9319 283.353 87.9261 283.369 84.1193C283.353 81.0263 284.178 78.3219 285.843 76.006C287.524 73.6744 289.848 71.8582 292.814 70.5575C295.796 69.2569 299.215 68.6065 303.069 68.6065C307.003 68.6065 310.405 69.2648 313.276 70.5813C316.147 71.8978 318.36 73.7537 319.914 76.1488C321.484 78.5281 322.277 81.3118 322.293 84.5H309.636ZM326.659 79.9318V69.2727H369.01V79.9318H354.354V118H341.316V79.9318H326.659ZM380.496 118H366.22L382.304 69.2727H400.387L416.47 118H402.195L391.536 82.6918H391.155L380.496 118ZM377.831 98.7756H404.669V108.673H377.831V98.7756ZM421.164 118V69.2727H442.196C445.813 69.2727 448.977 69.931 451.689 71.2475C454.402 72.564 456.511 74.4595 458.018 76.9339C459.525 79.4084 460.279 82.3745 460.279 85.8324C460.279 89.322 459.501 92.2643 457.947 94.6594C456.408 97.0546 454.243 98.8628 451.452 100.084C448.676 101.306 445.432 101.916 441.72 101.916H429.158V91.6378H439.056C440.61 91.6378 441.934 91.4474 443.029 91.0668C444.139 90.6702 444.988 90.0437 445.575 89.1871C446.178 88.3306 446.479 87.2124 446.479 85.8324C446.479 84.4366 446.178 83.3024 445.575 82.43C444.988 81.5418 444.139 80.8915 443.029 80.479C441.934 80.0508 440.61 79.8366 439.056 79.8366H434.392V118H421.164ZM449.715 95.6349L461.896 118H447.526L435.629 95.6349H449.715ZM464.585 79.9318V69.2727H506.936V79.9318H492.28V118H479.241V79.9318H464.585Z" fill="white"/>
</svg>
