<svg width="400" height="133" viewBox="0 0 400 133" fill="none" xmlns="http://www.w3.org/2000/svg">
<rect x="3.57143" y="3.57143" width="392.857" height="125" rx="31.4286" fill="#CB5454" stroke="black" stroke-width="7.14286"/>
<path d="M71.4899 79V44.83H84.842C91.6377 44.83 94.7006 49.3764 94.7006 55.3586C94.7006 62.3457 90.7284 65.9829 83.502 65.9829H80.3913V79H71.4899ZM80.3913 51.2429V59.57H82.0663C84.3156 59.57 85.512 58.2779 85.512 55.4064C85.512 52.5829 84.3156 51.2429 82.0663 51.2429H80.3913ZM97.5294 79V44.83H111.456C118.252 44.83 120.836 48.6586 120.836 53.9229C120.836 58.4693 119.065 61.4364 114.997 62.0586V62.1543C119.304 62.5371 120.597 65.265 120.597 69.8114V72.7307C120.597 74.5014 120.597 76.7986 121.027 77.4686C121.267 77.8514 121.458 78.2343 122.032 78.5214V79H112.557C111.695 77.1814 111.695 73.9271 111.695 72.4914V70.1943C111.695 66.3179 110.929 65.3129 108.776 65.3129H106.431V79H97.5294ZM106.431 51.2429V59.2829H108.202C110.738 59.2829 111.934 57.6557 111.934 55.215C111.934 52.4393 110.834 51.2429 108.154 51.2429H106.431ZM125.01 79V44.83H145.253V52.1043H133.911V57.9429H144.536V64.93H133.911V71.7257H145.684V79H125.01ZM170.57 54.6886H162.243V53.875C162.243 51.865 161.429 50.19 159.706 50.19C157.792 50.19 156.931 51.6736 156.931 53.205C156.931 59.9529 171.479 56.6507 171.479 69.1414C171.479 76.4157 167.22 79.67 159.371 79.67C152.001 79.67 147.886 77.1336 147.886 70.0507V68.8543H156.5V69.6679C156.5 72.5871 157.696 73.64 159.419 73.64C161.238 73.64 162.291 72.2043 162.291 70.3379C162.291 63.59 148.316 66.94 148.316 54.8321C148.316 47.9407 152.001 44.16 159.515 44.16C167.268 44.16 170.57 47.3664 170.57 54.6886ZM196.274 54.6886H187.947V53.875C187.947 51.865 187.134 50.19 185.411 50.19C183.497 50.19 182.635 51.6736 182.635 53.205C182.635 59.9529 197.184 56.6507 197.184 69.1414C197.184 76.4157 192.924 79.67 185.076 79.67C177.706 79.67 173.59 77.1336 173.59 70.0507V68.8543H182.204V69.6679C182.204 72.5871 183.401 73.64 185.124 73.64C186.942 73.64 187.995 72.2043 187.995 70.3379C187.995 63.59 174.021 66.94 174.021 54.8321C174.021 47.9407 177.706 44.16 185.219 44.16C192.972 44.16 196.274 47.3664 196.274 54.6886ZM234.411 54.6886H226.083V53.875C226.083 51.865 225.27 50.19 223.547 50.19C221.633 50.19 220.771 51.6736 220.771 53.205C220.771 59.9529 235.32 56.6507 235.32 69.1414C235.32 76.4157 231.061 79.67 223.212 79.67C215.842 79.67 211.726 77.1336 211.726 70.0507V68.8543H220.341V69.6679C220.341 72.5871 221.537 73.64 223.26 73.64C225.078 73.64 226.131 72.2043 226.131 70.3379C226.131 63.59 212.157 66.94 212.157 54.8321C212.157 47.9407 215.842 44.16 223.356 44.16C231.108 44.16 234.411 47.3664 234.411 54.6886ZM242.982 79V52.3914H236.282V44.83H258.584V52.3914H251.884V79H242.982ZM255.244 79L263.572 44.83H274.77L283.097 79H273.622L272.712 73.0179H265.629L264.72 79H255.244ZM271.659 66.3179L269.219 51.8171H269.123L266.682 66.3179H271.659ZM284.565 79V44.83H298.491C305.287 44.83 307.871 48.6586 307.871 53.9229C307.871 58.4693 306.101 61.4364 302.033 62.0586V62.1543C306.34 62.5371 307.632 65.265 307.632 69.8114V72.7307C307.632 74.5014 307.632 76.7986 308.063 77.4686C308.302 77.8514 308.493 78.2343 309.068 78.5214V79H299.592C298.731 77.1814 298.731 73.9271 298.731 72.4914V70.1943C298.731 66.3179 297.965 65.3129 295.811 65.3129H293.466V79H284.565ZM293.466 51.2429V59.2829H295.237C297.773 59.2829 298.97 57.6557 298.97 55.215C298.97 52.4393 297.869 51.2429 295.189 51.2429H293.466ZM315.703 79V52.3914H309.003V44.83H331.304V52.3914H324.604V79H315.703Z" fill="white"/>
</svg>
