<svg width="1440" height="810" viewBox="0 0 1440 810" fill="none" xmlns="http://www.w3.org/2000/svg">
<rect width="1440" height="810" fill="#B0F6FF"/>
<rect width="1440" height="810" fill="url(#paint0_linear_398_101)" fill-opacity="0.2"/>
<path d="M0 269.25V301.5V507.75H1440V332.625C1398.47 306.158 1345.28 306.548 1304.14 333.62L1289.56 343.215C1266.54 358.369 1248.07 379.502 1236.14 404.35L1213.5 451.5C1165.77 282.257 953.667 226.734 829.133 350.882L804.188 375.75L753.313 350.281C690.875 319.022 618.646 313.583 552.23 335.139C535.865 340.45 520.055 347.338 505.021 355.705L398.25 415.125L227.599 324.644C176.042 297.308 121.472 276.083 64.9946 261.399L0 244.5V269.25Z" fill="#5AC59C"/>
<path d="M773.274 395.098L702.16 434.652C697.721 437.121 692.334 437.176 687.845 434.797L538.612 355.716C519.361 345.514 498.985 337.593 477.899 332.114L465.336 328.849C421.134 317.363 374.549 318.932 331.22 333.367C291.076 346.742 255.259 370.65 227.512 402.595L219.458 411.867C208.853 424.075 199.322 437.176 190.969 451.022L156.75 507.75H397.609H1440C1440 368.086 1274.31 294.691 1170.88 388.535L1110.35 443.448C1109.22 444.472 1107.6 444.754 1106.19 444.172L961.065 384.212C913.547 364.579 860.59 362.51 811.685 378.374C798.37 382.693 785.506 388.294 773.274 395.098Z" fill="#4EA685"/>
<path d="M16.8202 280.133L11.1383 283.141C9.29417 284.117 7.60638 285.364 6.13091 286.839C2.20536 290.765 0 296.089 0 301.64V507.734H116.156L114.485 455.087L113.212 414.982C112.952 406.795 115.055 398.706 119.269 391.681L123.322 384.927C124.648 382.717 125.348 380.188 125.348 377.61C125.348 374.733 124.476 371.924 122.846 369.553L119.674 364.94C117.35 361.559 114.397 358.65 110.983 356.374C107.776 354.236 104.207 352.685 100.454 351.802L100.187 351.739C94.7612 350.463 89.104 350.546 83.7181 351.982L80.0279 352.966C79.6017 353.08 79.1865 353.232 78.7874 353.42C73.2398 356.03 67.1132 351.128 68.4432 345.143L68.5238 344.781L71.0307 321.382V313.603C71.0307 305.55 68.9956 297.626 65.1144 290.57L63.4973 287.629C62.397 285.629 61.0191 283.794 59.4047 282.18C56.0851 278.86 51.8716 276.578 47.2777 275.611L45.0227 275.136C40.6819 274.222 36.1984 274.222 31.8576 275.136L28.9209 275.754C24.7028 276.642 20.6298 278.116 16.8202 280.133Z" fill="#288670"/>
<path d="M223.07 309.383L221.948 309.977C217.081 312.554 212.627 315.843 208.733 319.737L206.25 322.22L204.62 324.371C201.217 328.86 198.314 333.708 195.963 338.827L194.038 343.021C192.066 347.316 190.753 351.884 190.143 356.57C189.147 364.238 190.058 372.034 192.796 379.265L198.813 395.157C203.73 408.143 206.25 421.913 206.25 435.799V507.75H325.125H354H371.296C377.457 507.75 382.057 502.081 380.787 496.052C380.435 494.38 379.648 492.831 378.505 491.562L376.996 489.885C374.712 487.347 371.756 485.507 368.47 484.579L359.128 481.938C357.259 481.41 355.607 480.298 354.414 478.764C352.318 476.069 351.904 472.428 353.341 469.332L354.702 466.402C355.477 464.733 355.922 462.93 356.014 461.093L356.02 460.968C356.169 457.985 355.356 455.034 353.699 452.549C352.904 451.357 351.931 450.294 350.812 449.4L349.534 448.377C348.079 447.213 346.495 446.219 344.814 445.414L341.859 444L336.375 441.375L335.216 440.727C326.072 435.611 322.344 424.361 326.625 414.798L327.139 413.519C329.924 406.602 329.059 398.749 324.834 392.604C323.23 390.271 321.196 388.266 318.841 386.695L317.228 385.62C314.021 383.482 310.457 381.935 306.704 381.052L306.437 380.989C301.011 379.713 295.354 379.796 289.968 381.232L286.278 382.216C285.852 382.33 285.437 382.482 285.037 382.67C279.49 385.28 273.363 380.378 274.693 374.393L274.774 374.031L277.281 350.632V342.853C277.281 334.8 275.246 326.876 271.364 319.82L269.747 316.879C268.647 314.879 267.269 313.044 265.655 311.43C262.335 308.11 258.122 305.828 253.528 304.861L251.273 304.386C246.932 303.472 242.448 303.472 238.108 304.386L235.171 305.004C230.953 305.892 226.88 307.366 223.07 309.383Z" fill="#288670"/>
<path d="M453.632 507.75H275.585C273.029 507.75 270.516 507.085 268.295 505.822C267.546 505.395 266.835 504.904 266.172 504.354L263.298 501.969L261.13 500.351C259.143 498.867 257.363 497.126 255.837 495.172C254.366 493.289 253.142 491.224 252.197 489.028L251.685 487.839L251.501 487.473C250.36 485.199 249.919 482.638 250.236 480.113C250.342 479.271 250.531 478.442 250.8 477.637L251.596 475.26C252.075 473.828 252.959 472.566 254.14 471.625C255.072 470.883 256.161 470.364 257.324 470.106L258.332 469.883C260.321 469.443 262.388 469.505 264.347 470.062L264.419 470.082C265.388 470.358 266.321 470.749 267.197 471.248L268.623 472.059C269.802 472.73 270.927 473.491 271.988 474.336L273.62 475.636L277.783 479.78C277.98 479.976 278.29 479.72 278.136 479.489L275.555 474.351L272.33 466.644L269.749 458.294C268.466 454.035 267.814 449.611 267.814 445.163V441.594L268.341 437.659C268.846 433.886 269.976 430.224 271.685 426.822L272.822 424.557C273.778 422.654 275.035 420.917 276.544 419.415L277.786 418.178C279.286 416.685 281.133 415.586 283.162 414.98L283.399 414.909C285.444 414.298 287.616 414.248 289.687 414.764C291.008 415.093 292.264 415.646 293.399 416.399L295.555 417.83L296.306 418.329C299.638 420.54 302.461 423.435 304.587 426.822L309.617 434.334C309.704 434.464 309.774 434.604 309.827 434.751C310.527 436.703 313.401 436.29 313.523 434.22L313.619 432.602L314.909 421.684L315.175 420.557C316.713 414.051 319.005 407.747 322.005 401.773L323.567 398.663C324.669 396.469 326.118 394.466 327.859 392.734L330.712 389.893C331.769 388.84 333.092 388.094 334.54 387.734L334.931 387.637C336.582 387.226 338.325 387.416 339.848 388.175C340.842 388.669 341.707 389.388 342.375 390.275L343.65 391.968C344.697 393.357 345.512 394.906 346.064 396.555L346.888 399.017C347.502 400.85 347.949 402.735 348.224 404.649L348.532 406.8C348.911 409.44 349.101 412.103 349.101 414.77V418.472L348.923 420.773C348.803 422.331 350.851 423.007 351.682 421.684L356.198 413.976L359.842 408.988C360.851 407.605 361.968 406.304 363.181 405.096C365.395 402.892 367.914 401.016 370.66 399.524L373.616 397.919L376.212 396.885C378.766 395.868 381.466 395.268 384.211 395.107L386.916 394.949C389.615 394.791 392.308 395.341 394.729 396.546L394.997 396.68C395.794 397.077 396.547 397.556 397.244 398.111C398.679 399.254 399.848 400.695 400.671 402.334L401.094 403.176C401.697 404.377 402.156 405.646 402.459 406.955L403.208 410.186C403.694 412.282 404.028 414.41 404.207 416.554L404.221 416.723C404.462 419.596 404.438 422.485 404.15 425.353L403.938 427.464L403.305 433.132C403.297 433.207 403.282 433.281 403.261 433.354C402.891 434.646 404.43 435.626 405.443 434.743L406.9 433.474C407.074 433.322 407.274 433.203 407.49 433.123L409.751 432.278C411.453 431.643 413.255 431.318 415.071 431.318H415.393C417.624 431.318 419.829 431.784 421.869 432.686C423.662 433.48 425.295 434.596 426.685 435.98L427.129 436.423C428.009 437.298 428.786 438.272 429.446 439.323C430.911 441.656 431.764 444.32 431.926 447.07L432.301 453.411C432.316 453.666 432.274 453.921 432.179 454.157C431.677 455.408 432.736 456.727 434.066 456.506L434.652 456.409C434.819 456.381 434.99 456.374 435.16 456.388L439.973 456.788C441.734 456.934 443.441 457.462 444.977 458.336C446.418 459.155 447.677 460.262 448.674 461.586L448.935 461.933C450.313 463.762 451.23 465.896 451.608 468.154L451.996 470.469C452.213 471.77 452.323 473.087 452.323 474.406V475.086C452.323 479.259 451.444 483.386 449.742 487.197L449.222 488.233C448.727 489.218 449.712 490.292 450.736 489.884C450.931 489.807 451.142 489.781 451.348 489.811L453.222 490.077C454.743 490.294 456.175 490.928 457.357 491.909L457.67 492.168C458.821 493.123 459.737 494.33 460.346 495.696L460.797 496.705C461.572 498.442 461.69 500.402 461.128 502.22C460.112 505.508 457.073 507.75 453.632 507.75Z" fill="#48A340"/>
<path d="M676.546 507.734H445.972C442.656 507.734 439.398 506.868 436.519 505.223C435.55 504.669 434.632 504.032 433.774 503.317L430.049 500.213L427.249 498.113C424.67 496.179 422.361 493.909 420.382 491.365C418.478 488.917 416.896 486.235 415.674 483.385L415.007 481.828L414.77 481.355C413.29 478.394 412.719 475.061 413.13 471.777C413.267 470.681 413.512 469.601 413.861 468.554L414.895 465.451C415.514 463.595 416.655 461.958 418.182 460.736C419.392 459.769 420.807 459.091 422.319 458.755L423.614 458.467C426.192 457.894 428.872 457.974 431.411 458.7L431.502 458.726C432.757 459.084 433.964 459.593 435.097 460.24L436.949 461.299C438.475 462.17 439.93 463.16 441.302 464.257L443.419 465.951L448.81 471.341C449.064 471.596 449.469 471.265 449.269 470.965L445.926 464.28L441.748 454.252L438.405 443.388C436.743 437.847 435.898 432.092 435.898 426.307V421.661L436.582 416.535C437.236 411.63 438.699 406.867 440.912 402.441L442.392 399.481C443.626 397.014 445.249 394.761 447.2 392.811L448.824 391.186C450.762 389.249 453.15 387.823 455.774 387.035L456.084 386.943C458.734 386.148 461.549 386.082 464.233 386.753C465.943 387.181 467.567 387.899 469.034 388.877L471.832 390.742L472.793 391.383C477.116 394.265 480.777 398.035 483.531 402.441L490.047 412.216C490.159 412.384 490.25 412.565 490.318 412.755C491.222 415.286 494.948 414.753 495.106 412.07L495.23 409.962L496.901 395.756L497.248 394.282C499.238 385.823 502.207 377.623 506.093 369.85L508.124 365.789C509.546 362.944 511.418 360.347 513.668 358.098L517.378 354.388C518.743 353.023 520.453 352.054 522.326 351.586L522.829 351.46C524.972 350.925 527.235 351.173 529.21 352.161C530.494 352.803 531.612 353.735 532.473 354.884L534.134 357.099C535.487 358.903 536.541 360.913 537.254 363.052L538.326 366.269C539.12 368.652 539.698 371.101 540.054 373.588L540.454 376.393C540.945 379.826 541.191 383.29 541.191 386.759V391.577L540.96 394.581C540.805 396.6 543.46 397.473 544.534 395.756L550.383 385.728L555.107 379.232C556.413 377.437 557.857 375.747 559.426 374.178C562.296 371.308 565.563 368.864 569.126 366.92L572.946 364.837L576.311 363.49C579.617 362.168 583.114 361.387 586.669 361.178L590.165 360.973C593.666 360.767 597.16 361.484 600.296 363.052L600.636 363.222C601.672 363.74 602.65 364.365 603.553 365.089C605.41 366.574 606.923 368.445 607.986 370.572L608.54 371.68C609.32 373.24 609.913 374.888 610.305 376.588L611.277 380.798C611.906 383.524 612.338 386.292 612.571 389.079L612.589 389.302C612.901 393.04 612.87 396.798 612.496 400.529L612.222 403.277L611.402 410.651C611.391 410.749 611.372 410.845 611.346 410.939C610.866 412.617 612.869 413.887 614.182 412.738L616.059 411.096C616.285 410.899 616.543 410.744 616.824 410.639L619.749 409.542C621.955 408.714 624.292 408.291 626.649 408.291H627.052C629.946 408.291 632.808 408.898 635.453 410.073C637.773 411.104 639.883 412.554 641.678 414.349L642.257 414.927C643.4 416.07 644.409 417.339 645.266 418.71C647.161 421.743 648.265 425.204 648.475 428.774L648.961 437.037C648.98 437.367 648.927 437.698 648.804 438.005C648.153 439.633 649.533 441.348 651.263 441.06L652.004 440.936C652.223 440.9 652.445 440.89 652.665 440.909L658.89 441.428C661.176 441.618 663.393 442.307 665.385 443.445C667.249 444.51 668.875 445.945 670.163 447.663L670.512 448.129C672.294 450.504 673.479 453.274 673.968 456.203L674.472 459.231C674.754 460.923 674.896 462.634 674.896 464.349V465.241C674.896 470.668 673.757 476.034 671.553 480.993L670.873 482.353C670.234 483.63 671.513 485.02 672.839 484.489C673.092 484.388 673.366 484.355 673.635 484.394L676.062 484.741C678.031 485.022 679.883 485.845 681.411 487.119L681.827 487.465C683.314 488.704 684.497 490.269 685.283 492.039L685.877 493.375C686.879 495.629 687.031 498.168 686.306 500.525C684.988 504.81 681.029 507.734 676.546 507.734Z" fill="#77CB6F"/>
<path d="M286.867 507.734H56.2927C52.9768 507.734 49.7182 506.868 46.8392 505.223C45.8703 504.669 44.9519 504.032 44.0946 503.317L40.3691 500.213L37.5695 498.113C34.9906 496.179 32.681 493.909 30.7018 491.365C28.798 488.917 27.2159 486.235 25.9943 483.385L25.3273 481.828L25.0908 481.355C23.6103 478.394 23.0394 475.061 23.45 471.777C23.587 470.681 23.8318 469.601 24.181 468.554L25.2154 465.451C25.8339 463.595 26.9754 461.958 28.5026 460.736C29.7123 459.769 31.1275 459.091 32.6397 458.755L33.934 458.467C36.5119 457.894 39.192 457.974 41.7312 458.7L41.8228 458.726C43.0775 459.084 44.2844 459.593 45.4174 460.24L47.2694 461.299C48.795 462.17 50.2505 463.16 51.6225 464.257L53.7396 465.951L59.13 471.341C59.3848 471.596 59.789 471.265 59.5892 470.965L56.2465 464.28L52.0683 454.252L48.7256 443.388C47.0632 437.847 46.2187 432.092 46.2187 426.307V421.661L46.9021 416.535C47.5562 411.63 49.0195 406.867 51.2326 402.441L52.7125 399.481C53.9462 397.014 55.5697 394.761 57.5204 392.811L59.1446 391.186C61.082 389.249 63.4699 387.823 66.0942 387.035L66.4039 386.943C69.054 386.148 71.8694 386.082 74.5535 386.753C76.2637 387.181 77.8877 387.899 79.3545 388.877L82.1518 390.742L83.1132 391.383C87.4367 394.265 91.0971 398.035 93.851 402.441L100.368 412.216C100.48 412.384 100.571 412.565 100.638 412.755C101.543 415.286 105.268 414.753 105.426 412.07L105.55 409.962L107.222 395.756L107.568 394.282C109.559 385.823 112.527 377.623 116.414 369.85L118.444 365.789C119.867 362.944 121.739 360.347 123.988 358.098L127.698 354.388C129.063 353.023 130.774 352.054 132.647 351.586L133.15 351.46C135.292 350.925 137.555 351.173 139.53 352.161C140.815 352.803 141.932 353.735 142.794 354.884L144.455 357.099C145.808 358.903 146.861 360.913 147.574 363.052L148.646 366.269C149.44 368.652 150.019 371.101 150.374 373.588L150.775 376.393C151.265 379.826 151.511 383.29 151.511 386.759V391.577L151.28 394.581C151.125 396.6 153.781 397.473 154.854 395.756L160.703 385.728L165.428 379.232C166.733 377.437 168.177 375.747 169.746 374.178C172.617 371.308 175.883 368.864 179.447 366.92L183.266 364.837L186.632 363.49C189.937 362.168 193.435 361.387 196.989 361.178L200.485 360.973C203.986 360.767 207.48 361.484 210.617 363.052L210.957 363.222C211.992 363.74 212.97 364.365 213.874 365.089C215.731 366.574 217.243 368.445 218.307 370.572L218.86 371.68C219.641 373.24 220.233 374.888 220.626 376.588L221.597 380.798C222.226 383.524 222.659 386.292 222.891 389.079L222.909 389.302C223.221 393.04 223.19 396.798 222.817 400.529L222.542 403.277L221.723 410.651C221.712 410.749 221.693 410.845 221.666 410.939C221.186 412.617 223.189 413.887 224.503 412.738L226.38 411.096C226.605 410.899 226.864 410.744 227.144 410.639L230.069 409.542C232.275 408.714 234.612 408.291 236.969 408.291H237.372C240.267 408.291 243.129 408.898 245.773 410.073C248.093 411.104 250.204 412.554 251.999 414.349L252.577 414.927C253.72 416.07 254.729 417.339 255.586 418.71C257.482 421.743 258.585 425.204 258.795 428.774L259.281 437.037C259.301 437.367 259.247 437.698 259.124 438.005C258.473 439.633 259.853 441.348 261.583 441.06L262.324 440.936C262.543 440.9 262.765 440.89 262.986 440.909L269.21 441.428C271.497 441.618 273.714 442.307 275.706 443.445C277.569 444.51 279.195 445.945 280.483 447.663L280.833 448.129C282.615 450.504 283.8 453.274 284.288 456.203L284.793 459.231C285.074 460.923 285.216 462.634 285.216 464.349V465.241C285.216 470.668 284.077 476.034 281.874 480.993L281.193 482.353C280.555 483.63 281.833 485.02 283.159 484.489C283.412 484.388 283.687 484.355 283.956 484.394L286.383 484.741C288.352 485.022 290.204 485.845 291.732 487.119L292.147 487.465C293.635 488.704 294.817 490.269 295.604 492.039L296.198 493.375C297.199 495.629 297.351 498.168 296.626 500.525C295.308 504.81 291.349 507.734 286.867 507.734Z" fill="#77CB6F"/>
<path d="M1312.18 309.383L1313.3 309.977C1318.17 312.554 1322.62 315.843 1326.52 319.737L1329 322.22L1330.63 324.371C1334.03 328.86 1336.94 333.708 1339.29 338.827L1341.21 343.021C1343.18 347.316 1344.5 351.884 1345.11 356.57C1346.1 364.238 1345.19 372.034 1342.45 379.265L1336.44 395.157C1331.52 408.143 1329 421.913 1329 435.799V507.75H1210.12H1181.25H1163.95C1157.79 507.75 1153.19 502.081 1154.46 496.052C1154.81 494.38 1155.6 492.831 1156.74 491.562L1158.25 489.885C1160.54 487.347 1163.49 485.507 1166.78 484.579L1176.12 481.938C1177.99 481.41 1179.64 480.298 1180.84 478.764C1182.93 476.069 1183.35 472.428 1181.91 469.332L1180.55 466.402C1179.77 464.733 1179.33 462.93 1179.24 461.093L1179.23 460.968C1179.08 457.985 1179.89 455.034 1181.55 452.549C1182.35 451.357 1183.32 450.294 1184.44 449.4L1185.72 448.377C1187.17 447.213 1188.76 446.219 1190.44 445.414L1193.39 444L1198.88 441.375L1200.03 440.727C1209.18 435.611 1212.91 424.361 1208.62 414.798L1208.11 413.519C1205.33 406.602 1206.19 398.749 1210.42 392.604C1212.02 390.271 1214.05 388.266 1216.41 386.695L1218.02 385.62C1221.23 383.482 1224.79 381.935 1228.55 381.052L1228.81 380.989C1234.24 379.713 1239.9 379.796 1245.28 381.232L1248.97 382.216C1249.4 382.33 1249.81 382.482 1250.21 382.67C1255.76 385.28 1261.89 380.378 1260.56 374.393L1260.48 374.031L1257.97 350.632V342.853C1257.97 334.8 1260 326.876 1263.89 319.82L1265.5 316.879C1266.6 314.879 1267.98 313.044 1269.6 311.43C1272.91 308.11 1277.13 305.828 1281.72 304.861L1283.98 304.386C1288.32 303.472 1292.8 303.472 1297.14 304.386L1300.08 305.004C1304.3 305.892 1308.37 307.366 1312.18 309.383Z" fill="#288670"/>
<path d="M1266.63 507.75H1088.58C1086.03 507.75 1083.52 507.085 1081.29 505.822C1080.55 505.395 1079.84 504.904 1079.17 504.354L1076.3 501.969L1074.13 500.351C1072.14 498.867 1070.36 497.126 1068.84 495.172C1067.37 493.289 1066.14 491.224 1065.2 489.028L1064.69 487.839L1064.5 487.473C1063.36 485.199 1062.92 482.638 1063.24 480.113C1063.34 479.271 1063.53 478.442 1063.8 477.637L1064.6 475.26C1065.08 473.828 1065.96 472.566 1067.14 471.625C1068.07 470.883 1069.16 470.364 1070.32 470.106L1071.33 469.883C1073.32 469.443 1075.39 469.505 1077.35 470.062L1077.42 470.082C1078.39 470.358 1079.32 470.749 1080.2 471.248L1081.62 472.059C1082.8 472.73 1083.93 473.491 1084.99 474.336L1086.62 475.636L1090.78 479.78C1090.98 479.976 1091.29 479.72 1091.14 479.489L1088.56 474.351L1085.33 466.644L1082.75 458.294C1081.47 454.035 1080.81 449.611 1080.81 445.163V441.594L1081.34 437.659C1081.85 433.886 1082.98 430.224 1084.68 426.822L1085.82 424.557C1086.78 422.654 1088.03 420.917 1089.54 419.415L1090.79 418.178C1092.29 416.685 1094.13 415.586 1096.16 414.98L1096.4 414.909C1098.44 414.298 1100.62 414.248 1102.69 414.764C1104.01 415.093 1105.26 415.646 1106.4 416.399L1108.55 417.83L1109.31 418.329C1112.64 420.54 1115.46 423.435 1117.59 426.822L1122.62 434.334C1122.7 434.464 1122.77 434.604 1122.83 434.751C1123.53 436.703 1126.4 436.29 1126.52 434.22L1126.62 432.602L1127.91 421.684L1128.18 420.557C1129.71 414.051 1132 407.747 1135.01 401.773L1136.57 398.663C1137.67 396.469 1139.12 394.466 1140.86 392.734L1143.71 389.893C1144.77 388.84 1146.09 388.094 1147.54 387.734L1147.93 387.637C1149.58 387.226 1151.33 387.416 1152.85 388.175C1153.84 388.669 1154.71 389.388 1155.38 390.275L1156.65 391.968C1157.7 393.357 1158.51 394.906 1159.06 396.555L1159.89 399.017C1160.5 400.85 1160.95 402.735 1161.22 404.649L1161.53 406.8C1161.91 409.44 1162.1 412.103 1162.1 414.77V418.472L1161.92 420.773C1161.8 422.331 1163.85 423.007 1164.68 421.684L1169.2 413.976L1172.84 408.988C1173.85 407.605 1174.97 406.304 1176.18 405.096C1178.4 402.892 1180.91 401.016 1183.66 399.524L1186.62 397.919L1189.21 396.885C1191.77 395.868 1194.47 395.268 1197.21 395.107L1199.92 394.949C1202.61 394.791 1205.31 395.341 1207.73 396.546L1208 396.68C1208.79 397.077 1209.55 397.556 1210.24 398.111C1211.68 399.254 1212.85 400.695 1213.67 402.334L1214.09 403.176C1214.7 404.377 1215.16 405.646 1215.46 406.955L1216.21 410.186C1216.69 412.282 1217.03 414.41 1217.21 416.554L1217.22 416.723C1217.46 419.596 1217.44 422.485 1217.15 425.353L1216.94 427.464L1216.31 433.132C1216.3 433.207 1216.28 433.281 1216.26 433.354C1215.89 434.646 1217.43 435.626 1218.44 434.743L1219.9 433.474C1220.07 433.322 1220.27 433.203 1220.49 433.123L1222.75 432.278C1224.45 431.643 1226.25 431.318 1228.07 431.318H1228.39C1230.62 431.318 1232.83 431.784 1234.87 432.686C1236.66 433.48 1238.29 434.596 1239.68 435.98L1240.13 436.423C1241.01 437.298 1241.79 438.272 1242.45 439.323C1243.91 441.656 1244.76 444.32 1244.93 447.07L1245.3 453.411C1245.32 453.666 1245.27 453.921 1245.18 454.157C1244.68 455.408 1245.74 456.727 1247.07 456.506L1247.65 456.409C1247.82 456.381 1247.99 456.374 1248.16 456.388L1252.97 456.788C1254.73 456.934 1256.44 457.462 1257.98 458.336C1259.42 459.155 1260.68 460.262 1261.67 461.586L1261.94 461.933C1263.31 463.762 1264.23 465.896 1264.61 468.154L1265 470.469C1265.21 471.77 1265.32 473.087 1265.32 474.406V475.086C1265.32 479.259 1264.44 483.386 1262.74 487.197L1262.22 488.233C1261.73 489.218 1262.71 490.292 1263.74 489.884C1263.93 489.807 1264.14 489.781 1264.35 489.811L1266.22 490.077C1267.74 490.294 1269.17 490.928 1270.36 491.909L1270.67 492.168C1271.82 493.123 1272.74 494.33 1273.35 495.696L1273.8 496.705C1274.57 498.442 1274.69 500.402 1274.13 502.22C1273.11 505.508 1270.07 507.75 1266.63 507.75Z" fill="#48A340"/>
<path d="M1501.55 507.734H1270.97C1267.66 507.734 1264.4 506.868 1261.52 505.223C1260.55 504.669 1259.63 504.032 1258.77 503.317L1255.05 500.213L1252.25 498.113C1249.67 496.179 1247.36 493.909 1245.38 491.365C1243.48 488.917 1241.9 486.235 1240.67 483.385L1240.01 481.828L1239.77 481.355C1238.29 478.394 1237.72 475.061 1238.13 471.777C1238.27 470.681 1238.51 469.601 1238.86 468.554L1239.9 465.451C1240.51 463.595 1241.66 461.958 1243.18 460.736C1244.39 459.769 1245.81 459.091 1247.32 458.755L1248.61 458.467C1251.19 457.894 1253.87 457.974 1256.41 458.7L1256.5 458.726C1257.76 459.084 1258.96 459.593 1260.1 460.24L1261.95 461.299C1263.47 462.17 1264.93 463.16 1266.3 464.257L1268.42 465.951L1273.81 471.341C1274.06 471.596 1274.47 471.265 1274.27 470.965L1270.93 464.28L1266.75 454.252L1263.41 443.388C1261.74 437.847 1260.9 432.092 1260.9 426.307V421.661L1261.58 416.535C1262.24 411.63 1263.7 406.867 1265.91 402.441L1267.39 399.481C1268.63 397.014 1270.25 394.761 1272.2 392.811L1273.82 391.186C1275.76 389.249 1278.15 387.823 1280.77 387.035L1281.08 386.943C1283.73 386.148 1286.55 386.082 1289.23 386.753C1290.94 387.181 1292.57 387.899 1294.03 388.877L1296.83 390.742L1297.79 391.383C1302.12 394.265 1305.78 398.035 1308.53 402.441L1315.05 412.216C1315.16 412.384 1315.25 412.565 1315.32 412.755C1316.22 415.286 1319.95 414.753 1320.11 412.07L1320.23 409.962L1321.9 395.756L1322.25 394.282C1324.24 385.823 1327.21 377.623 1331.09 369.85L1333.12 365.789C1334.55 362.944 1336.42 360.347 1338.67 358.098L1342.38 354.388C1343.74 353.023 1345.45 352.054 1347.33 351.586L1347.83 351.46C1349.97 350.925 1352.23 351.173 1354.21 352.161C1355.49 352.803 1356.61 353.735 1357.47 354.884L1359.13 357.099C1360.49 358.903 1361.54 360.913 1362.25 363.052L1363.33 366.269C1364.12 368.652 1364.7 371.101 1365.05 373.588L1365.45 376.393C1365.94 379.826 1366.19 383.29 1366.19 386.759V391.577L1365.96 394.581C1365.8 396.6 1368.46 397.473 1369.53 395.756L1375.38 385.728L1380.11 379.232C1381.41 377.437 1382.86 375.747 1384.43 374.178C1387.3 371.308 1390.56 368.864 1394.13 366.92L1397.95 364.837L1401.31 363.49C1404.62 362.168 1408.11 361.387 1411.67 361.178L1415.16 360.973C1418.67 360.767 1422.16 361.484 1425.3 363.052L1425.64 363.222C1426.67 363.74 1427.65 364.365 1428.55 365.089C1430.41 366.574 1431.92 368.445 1432.99 370.572L1433.54 371.68C1434.32 373.24 1434.91 374.888 1435.31 376.588L1436.28 380.798C1436.91 383.524 1437.34 386.292 1437.57 389.079L1437.59 389.302C1437.9 393.04 1437.87 396.798 1437.5 400.529L1437.22 403.277L1436.4 410.651C1436.39 410.749 1436.37 410.845 1436.35 410.939C1435.87 412.617 1437.87 413.887 1439.18 412.738L1441.06 411.096C1441.28 410.899 1441.54 410.744 1441.82 410.639L1444.75 409.542C1446.96 408.714 1449.29 408.291 1451.65 408.291H1452.05C1454.95 408.291 1457.81 408.898 1460.45 410.073C1462.77 411.104 1464.88 412.554 1466.68 414.349L1467.26 414.927C1468.4 416.07 1469.41 417.339 1470.27 418.71C1472.16 421.743 1473.26 425.204 1473.47 428.774L1473.96 437.037C1473.98 437.367 1473.93 437.698 1473.8 438.005C1473.15 439.633 1474.53 441.348 1476.26 441.06L1477 440.936C1477.22 440.9 1477.44 440.89 1477.67 440.909L1483.89 441.428C1486.18 441.618 1488.39 442.307 1490.39 443.445C1492.25 444.51 1493.88 445.945 1495.16 447.663L1495.51 448.129C1497.29 450.504 1498.48 453.274 1498.97 456.203L1499.47 459.231C1499.75 460.923 1499.9 462.634 1499.9 464.349V465.241C1499.9 470.668 1498.76 476.034 1496.55 480.993L1495.87 482.353C1495.23 483.63 1496.51 485.02 1497.84 484.489C1498.09 484.388 1498.37 484.355 1498.64 484.394L1501.06 484.741C1503.03 485.022 1504.88 485.845 1506.41 487.119L1506.83 487.465C1508.31 488.704 1509.5 490.269 1510.28 492.039L1510.88 493.375C1511.88 495.629 1512.03 498.168 1511.31 500.525C1509.99 504.81 1506.03 507.734 1501.55 507.734Z" fill="#77CB6F"/>
<path d="M1440 507.75H0V810H1440V507.75Z" fill="#BAB37B"/>
<path d="M0 640.5H115.5L107.625 654.75H0V640.5Z" fill="#535252"/>
<path d="M149.985 640.5H342L330.022 654.75L141.75 654.75L149.985 640.5Z" fill="#535252"/>
<path d="M380.25 640.5H564.75L556.875 654.75L368.25 654.75L380.25 640.5Z" fill="#535252"/>
<path d="M599.25 640.5H791.625L779.625 654.75L591 654.75L599.25 640.5Z" fill="#535252"/>
<path d="M828.137 640.5H1014.75L1006.78 654.75L816 654.75L828.137 640.5Z" fill="#535252"/>
<path d="M1049.23 640.5H1241.25L1229.27 654.75L1041 654.75L1049.23 640.5Z" fill="#535252"/>
<path d="M1279.5 640.5H1440V654.75H1267.5L1279.5 640.5Z" fill="#535252"/>
<defs>
<linearGradient id="paint0_linear_398_101" x1="51.75" y1="94.5" x2="1280.62" y2="651.75" gradientUnits="userSpaceOnUse">
<stop stop-color="#FFC700"/>
<stop offset="1" stop-color="#D7DB0B"/>
</linearGradient>
</defs>
</svg>
