<svg width="607" height="351" viewBox="0 0 607 351" fill="none" xmlns="http://www.w3.org/2000/svg">
<path d="M272.875 40.375L272.125 10.375L366.625 9.625V39.625L272.875 40.375Z" fill="#EDB900" stroke="black" stroke-width="4.5"/>
<rect x="52" y="233.5" width="117" height="56.25" fill="#383333" stroke="black" stroke-width="7.5"/>
<rect x="412.75" y="233.5" width="123.75" height="56.25" fill="#383333" stroke="black" stroke-width="7.5"/>
<path d="M263.125 73.375L263.875 38.875L386.125 38.125L387.625 38.875L388.375 73.375H263.125Z" fill="#156C7F" stroke="black" stroke-width="4.5"/>
<path d="M457 45.625L434.125 73.75L381.25 32.5L403.75 4L457 45.625Z" fill="#445859" stroke="black" stroke-width="4.5"/>
<path d="M302.125 87.625V76.375H259.375C258.547 76.375 257.875 75.7034 257.875 74.875C257.875 74.0466 258.547 73.375 259.375 73.375H467.125C467.953 73.375 468.625 74.0466 468.625 74.875C468.625 75.7034 467.953 76.375 467.125 76.375H421.375V88.375H411.625V76.375H311.875V87.625H302.125Z" fill="black" stroke="black" stroke-width="0.75"/>
<path d="M372.625 88V101.875V123.625L373.375 137.875V161.125L373.914 172.724C374.054 175.714 374.761 178.65 376 181.375V181.375V181.375C377.726 184.827 378.617 188.636 378.601 192.495L378.25 280V310.75" stroke="black" stroke-width="0.75"/>
<path d="M4 273.25V262C4 261.379 4.50368 260.875 5.125 260.875H14.1957C15.3993 260.875 16.375 259.899 16.375 258.696V257.794C16.375 257.395 16.1192 257.04 15.7401 256.913C15.4353 256.812 15.2048 256.56 15.1304 256.247L13.375 248.875L12.673 246.348C11.8946 243.546 11.5 240.651 11.5 237.742C11.5 234.434 12.0106 231.145 13.0136 227.993L14.125 224.5L16.2823 217.412C16.5924 216.393 16.75 215.334 16.75 214.269V212.352C16.75 211.47 16.489 210.609 16 209.875C15.511 209.141 15.25 208.28 15.25 207.398V206.769C15.25 205.61 15.5576 204.473 16.1413 203.472L16.6401 202.617C17.4518 201.225 18.5814 200.046 19.9365 199.175L21.6868 198.05C22.6436 197.434 23.6541 196.907 24.706 196.474L29.6893 194.422C33.8056 192.727 38.0589 191.386 42.403 190.414L61 186.25L85.375 183.25L107.875 181.75L126.625 180.25L148.75 179.5L189.062 139.375L228.895 99.7278C229.214 99.4105 229.492 99.0549 229.723 98.6692L230.191 97.8904C230.393 97.5532 230.5 97.1672 230.5 96.7739C230.5 96.1983 230.729 95.6464 231.136 95.2394L232.181 94.1935C232.559 93.8164 232.987 93.4936 233.453 93.2345L236.328 91.6371C238.434 90.467 240.679 89.5648 243.009 88.9516C245.41 88.3198 247.882 88 250.364 88H348.25L411.625 87.25H421.75L446.5 86.5H459.625C466.595 86.9979 473.471 88.4036 480.077 90.6816L481 91C485.493 92.9969 489.821 95.3461 493.943 98.0256L495.25 98.875L504.625 106.375L514 114.25L523.75 123.25L592.75 199.75L598.75 206.5C601.661 210.381 603.146 215.146 602.956 219.994L602.5 231.625L601.75 244.375L601.375 252.625L601 259L600.625 265L599.5 270.625L599.23 271.813C598.161 276.514 596.748 281.131 595 285.625C593.76 289.098 591.917 292.325 589.556 295.158L589.375 295.375C587.451 297.299 584.854 298.402 582.133 298.449L546.475 299.075C544.612 299.108 542.778 298.617 541.181 297.659C540.315 297.139 539.534 296.491 538.863 295.737L538.594 295.433C537.46 294.158 536.597 292.665 536.057 291.046L535.375 289L533.875 283.375L532.871 279.759C532.292 277.675 531.513 275.651 530.545 273.716C529.518 271.661 528.283 269.716 526.859 267.913L523.375 263.5L521.832 261.72C519.617 259.164 517.136 256.852 514.43 254.822C512.148 253.111 509.717 251.608 507.165 250.333L506.937 250.219C504.152 248.826 501.243 247.694 498.248 246.839L492.25 245.125C485.759 244.126 479.202 243.625 472.635 243.625H471.25C467.26 243.625 463.279 244.019 459.367 244.802L457.75 245.125C454.255 246.123 450.846 247.397 447.552 248.934L446.875 249.25L442.375 251.5C440.13 252.996 438.039 254.711 436.132 256.618L435.25 257.5L430 263.125L426.25 268L423.25 272.125C421.267 275.099 419.498 278.255 418 281.5C416.759 284.974 416.125 288.636 416.125 292.325V294.625V301.375V302.875C416.125 307.431 412.431 311.125 407.875 311.125H176.997C176.168 311.125 175.341 311.037 174.531 310.864L173.386 310.618C171.518 310.218 169.841 309.194 168.631 307.715C167.646 306.512 167.014 305.059 166.804 303.519L166 297.625L164.5 286.75L163.431 282.118C162.645 278.712 161.565 275.382 160.203 272.163L159.718 271.015C158.658 268.51 157.379 266.103 155.897 263.822C154.137 261.115 152.099 258.599 149.816 256.316L146.875 253.375L145.214 251.714C142.828 249.328 140.189 247.211 137.343 245.4L136.824 245.07C134.531 243.61 132.095 242.387 129.555 241.42C126.859 240.393 124.061 239.659 121.209 239.231L118 238.75L113.37 238.364C110.462 238.122 107.538 238.117 104.629 238.35L104.04 238.397C101.103 238.632 98.1945 239.14 95.3522 239.915C92.7057 240.637 90.127 241.587 87.6449 242.755L85 244L78.25 248.125L75.7022 250.107C72.9062 252.281 70.3083 254.699 67.9387 257.332L67.4308 257.896C65.6464 259.879 64.0221 262 62.573 264.239C61.276 266.244 60.1228 268.338 59.1223 270.506L58.375 272.125L56.3739 275.945C54.9607 278.643 53.7856 281.459 52.8621 284.362L52.3576 285.948C51.8699 287.48 51.2637 288.973 50.5444 290.411L48.5051 294.49C47.8429 295.814 46.9013 296.979 45.7451 297.904C44.4351 298.952 42.8876 299.662 41.2388 299.971L40.8056 300.052C38.8016 300.428 36.735 300.287 34.8007 299.642L34.0765 299.401C30.6427 298.256 27.741 295.904 25.9106 292.781L25.0492 291.312C23.2981 288.325 22.375 284.925 22.375 281.462V277.089C22.375 277.04 22.3352 277 22.286 277H7.75C5.67893 277 4 275.321 4 273.25Z" fill="#4559C1" stroke="black" stroke-width="6.75"/>
<circle cx="108.25" cy="300.25" r="50.625" fill="black"/>
<circle cx="108.25" cy="300.25" r="27.375" fill="#FFD6A3"/>
<circle cx="475" cy="300.25" r="50.625" fill="black"/>
<path d="M205.375 170.5L205.75 166.375C206.487 162.933 208.101 159.74 210.434 157.105L238.75 125.125L248.5 114.625L250.251 112.874C251.804 111.321 253.751 110.219 255.883 109.686C256.709 109.479 257.554 109.36 258.405 109.331L278.875 108.625H355.244C357.057 108.625 358.844 109.047 360.465 109.857L360.996 110.123C361.497 110.373 361.965 110.684 362.39 111.048C363.668 112.144 364.498 113.673 364.721 115.342L365.125 118.375V130L364.375 146.875V173.072C364.375 173.854 364.266 174.631 364.052 175.382L363.779 176.336C363.677 176.692 363.511 177.027 363.288 177.324C362.785 177.995 362.027 178.428 361.194 178.52L359.125 178.75L332.875 178.375H307.75L276.25 178H253.375L233.875 177.625H205.375V170.5Z" fill="#FFC9B0" stroke="black" stroke-width="4.5"/>
<path d="M379.375 162.343V109.375L436.75 109L447.245 109.6C448.96 109.698 450.608 110.3 451.982 111.331C452.575 111.775 453.109 112.293 453.57 112.873L492.625 161.875L492.92 162.317C494.195 164.229 494.875 166.477 494.875 168.775V169.388C494.875 171.097 494.411 172.774 493.531 174.24L493.404 174.452C492.889 175.31 492.22 176.065 491.431 176.679C490.017 177.779 488.279 178.379 486.487 178.385L391.15 178.74C389.33 178.746 387.537 178.293 385.939 177.421C384.822 176.812 383.815 176.002 382.977 175.045C382.088 174.029 381.388 172.849 380.927 171.581L380.642 170.796C380.298 169.851 380.048 168.874 379.895 167.88L379.703 166.632C379.485 165.213 379.375 163.779 379.375 162.343Z" fill="#FFC9B0" stroke="black" stroke-width="4.5"/>
<path d="M163.927 172.407L163.156 171.722C162.805 171.41 162.508 171.04 162.28 170.629C161.374 168.999 161.659 166.966 162.978 165.647L227.835 100.79C228.805 99.8205 230.174 99.3641 231.531 99.558C231.843 99.6025 232.149 99.6808 232.444 99.7915L233.924 100.347C234.629 100.611 235.253 101.054 235.736 101.633C236.466 102.509 236.822 103.637 236.727 104.774L236.665 105.518C236.558 106.806 236.048 108.029 235.207 109.012L192.25 159.25L187.297 165.579C186.102 167.106 184.765 168.518 183.306 169.795L181.15 171.681C180.057 172.637 178.817 173.41 177.476 173.968C175.842 174.649 174.088 175 172.317 175H170.773C170.093 175 169.407 174.931 168.739 174.798C166.958 174.442 165.284 173.614 163.927 172.407Z" fill="#FFC9B0" stroke="black" stroke-width="4.5"/>
<circle cx="475" cy="300.25" r="27.375" fill="#FFD6A3"/>
<path d="M27.25 237.625C27.25 241.602 26.6423 245.119 25.7219 247.573C25.259 248.807 24.7531 249.676 24.2865 250.202C23.818 250.731 23.5479 250.75 23.5 250.75C23.4521 250.75 23.182 250.731 22.7135 250.202C22.2469 249.676 21.741 248.807 21.2781 247.573C20.3577 245.119 19.75 241.602 19.75 237.625C19.75 233.648 20.3577 230.131 21.2781 227.677C21.741 226.443 22.2469 225.574 22.7135 225.048C23.182 224.519 23.4521 224.5 23.5 224.5C23.5479 224.5 23.818 224.519 24.2865 225.048C24.7531 225.574 25.259 226.443 25.7219 227.677C26.6423 230.131 27.25 233.648 27.25 237.625Z" fill="#FFB800" stroke="black" stroke-width="3.75"/>
<path d="M317.057 285.25H217.75C211.537 285.25 206.5 280.213 206.5 274V201.625C206.5 195.412 211.537 190.375 217.75 190.375H351.25C357.463 190.375 362.5 195.412 362.5 201.625V240.748C362.5 243.786 361.271 246.695 359.093 248.813L324.9 282.065C322.8 284.107 319.986 285.25 317.057 285.25Z" fill="#213497" stroke="black" stroke-width="4.5"/>
<rect x="222.25" y="214.75" width="9.75" height="4.5" fill="black"/>
<circle cx="108.25" cy="300.25" r="17.25" fill="black"/>
<circle cx="475" cy="300.25" r="17.25" fill="black"/>
<rect x="386.5" y="190" width="110.25" height="4.5" rx="2.25" fill="black"/>
<rect x="384.25" y="209.5" width="78.75" height="4.5" rx="2.25" fill="black"/>
<rect x="382" y="229" width="51.75" height="4.5" rx="2.25" fill="black"/>
<rect x="379.75" y="248.5" width="33" height="4.5" rx="2.25" fill="black"/>
<rect x="340" y="283" width="62.25" height="4.5" rx="2.25" fill="black"/>
<rect x="354.25" y="266.5" width="51.75" height="4.5" rx="2.25" fill="black"/>
</svg>
