<svg width="809" height="468" viewBox="0 0 809 468" fill="none" xmlns="http://www.w3.org/2000/svg">
<path d="M363.5 53.5L362.5 13.5L488.5 12.5V52.5L363.5 53.5Z" fill="#EDB900" stroke="black" stroke-width="6"/>
<rect x="69" y="311" width="156" height="75" fill="#383333" stroke="black" stroke-width="10"/>
<rect x="550" y="311" width="165" height="75" fill="#383333" stroke="black" stroke-width="10"/>
<path d="M350.5 97.5L351.5 51.5L514.5 50.5L516.5 51.5L517.5 97.5H350.5Z" fill="#156C7F" stroke="black" stroke-width="6"/>
<path d="M609 60.5L578.5 98L508 43L538 5L609 60.5Z" fill="#445859" stroke="black" stroke-width="6"/>
<path d="M402.5 116.5V101.5H345.5C344.395 101.5 343.5 100.605 343.5 99.5C343.5 98.3954 344.395 97.5 345.5 97.5H622.5C623.605 97.5 624.5 98.3954 624.5 99.5C624.5 100.605 623.605 101.5 622.5 101.5H561.5V117.5H548.5V101.5H415.5V116.5H402.5Z" fill="black" stroke="black"/>
<path d="M496.5 117V135.5V164.5L497.5 183.5V214.5L498.219 229.965C498.405 233.952 499.348 237.867 501 241.5V241.5V241.5C503.301 246.102 504.489 251.181 504.469 256.326L504 373V414" stroke="black"/>
<path d="M5 364V349C5 348.172 5.67157 347.5 6.5 347.5H18.5943C20.1991 347.5 21.5 346.199 21.5 344.594V343.392C21.5 342.859 21.159 342.386 20.6534 342.218C20.2471 342.082 19.9397 341.747 19.8405 341.33L17.5 331.5L16.5641 328.131C15.5262 324.394 15 320.534 15 316.656C15 312.245 15.6807 307.861 17.0182 303.657L18.5 299L21.3764 289.549C21.7898 288.191 22 286.778 22 285.358V282.803C22 281.627 21.6521 280.478 21 279.5C20.3479 278.522 20 277.373 20 276.197V275.359C20 273.814 20.4101 272.297 21.1884 270.963L21.8535 269.823C22.9358 267.967 24.4419 266.394 26.2487 265.233L28.5824 263.733C29.8582 262.913 31.2055 262.209 32.608 261.632L39.2524 258.896C44.7408 256.636 50.4118 254.848 56.2039 253.551L81 248L113.5 244L143.5 242L168.5 240L198 239L251.75 185.5L304.86 132.637C305.285 132.214 305.656 131.74 305.965 131.226L306.588 130.187C306.857 129.738 307 129.223 307 128.699C307 127.931 307.305 127.195 307.848 126.653L309.242 125.258C309.745 124.755 310.315 124.325 310.937 123.979L314.771 121.849C317.579 120.289 320.572 119.086 323.679 118.269C326.88 117.426 330.176 117 333.486 117H464L548.5 116H562L595 115H612.5C621.794 115.664 630.961 117.538 639.769 120.575L641 121C646.991 123.662 652.761 126.795 658.258 130.368L660 131.5L672.5 141.5L685 152L698 164L790 266L798 275C801.881 280.175 803.862 286.529 803.608 292.992L803 308.5L802 325.5L801.5 336.5L801 345L800.5 353L799 360.5L798.64 362.084C797.215 368.353 795.33 374.508 793 380.5C791.346 385.13 788.889 389.433 785.742 393.21L785.5 393.5C782.934 396.066 779.472 397.536 775.844 397.599L728.3 398.433C725.817 398.477 723.371 397.823 721.241 396.545C720.087 395.852 719.045 394.988 718.151 393.982L717.791 393.578C716.28 391.877 715.129 389.887 714.409 387.728L713.5 385L711.5 377.5L710.161 372.679C709.389 369.899 708.351 367.201 707.06 364.621C705.69 361.881 704.043 359.288 702.145 356.884L697.5 351L695.443 348.626C692.489 345.219 689.181 342.136 685.573 339.43C682.531 337.148 679.289 335.144 675.887 333.444L675.583 333.292C671.869 331.435 667.991 329.926 663.998 328.785L656 326.5C647.346 325.169 638.603 324.5 629.847 324.5H628C622.68 324.5 617.372 325.026 612.155 326.069L610 326.5C605.341 327.831 600.794 329.529 596.403 331.579L595.5 332L589.5 335C586.507 336.995 583.719 339.281 581.176 341.824L580 343L573 350.5L568 357L564 362.5C561.357 366.465 558.997 370.673 557 375C555.346 379.632 554.5 384.514 554.5 389.433V392.5V401.5V403.5C554.5 409.575 549.575 414.5 543.5 414.5H235.662C234.557 414.5 233.455 414.383 232.375 414.152L230.848 413.825C228.357 413.291 226.121 411.926 224.508 409.954C223.195 408.349 222.352 406.413 222.072 404.358L221 396.5L219 382L217.575 375.824C216.527 371.283 215.087 366.842 213.271 362.55L212.624 361.02C211.211 357.68 209.506 354.471 207.529 351.43C205.183 347.82 202.465 344.465 199.421 341.421L195.5 337.5L193.285 335.285C190.105 332.105 186.585 329.282 182.791 326.867L182.099 326.426C179.041 324.481 175.793 322.85 172.406 321.559C168.812 320.19 165.082 319.212 161.279 318.642L157 318L150.827 317.486C146.949 317.162 143.051 317.156 139.172 317.466L138.386 317.529C134.471 317.842 130.593 318.52 126.803 319.554C123.274 320.516 119.836 321.783 116.527 323.34L113 325L104 330.5L100.603 333.142C96.8749 336.042 93.411 339.266 90.2516 342.776L89.5744 343.528C87.1952 346.172 85.0294 349 83.0973 351.986C81.368 354.659 79.8305 357.451 78.4964 360.341L77.5 362.5L74.8319 367.594C72.9476 371.191 71.3808 374.946 70.1495 378.816L69.4768 380.93C68.8266 382.974 68.0183 384.963 67.0593 386.881L64.3401 392.32C63.4572 394.086 62.2017 395.639 60.6601 396.872C58.9135 398.269 56.8502 399.216 54.6517 399.628L54.0741 399.736C51.4022 400.237 48.6466 400.049 46.0676 399.189L45.1021 398.867C40.5236 397.341 36.6547 394.205 34.2141 390.042L33.0655 388.082C30.7308 384.1 29.5 379.566 29.5 374.95V369.119C29.5 369.053 29.4469 369 29.3814 369H10C7.23858 369 5 366.761 5 364Z" fill="#C96262" stroke="black" stroke-width="9"/>
<circle cx="144" cy="400" r="67.5" fill="black"/>
<circle cx="144" cy="400" r="36.5" fill="#FFD6A3"/>
<circle cx="633" cy="400" r="67.5" fill="black"/>
<path d="M273.5 227L274 221.5C274.983 216.911 277.135 212.654 280.246 209.14L318 166.5L331 152.5L333.334 150.166C335.406 148.094 338.001 146.625 340.843 145.914C341.945 145.639 343.072 145.48 344.207 145.441L371.5 144.5H473.326C475.742 144.5 478.125 145.063 480.286 146.143L480.995 146.497C481.662 146.831 482.287 147.246 482.853 147.731C484.558 149.192 485.664 151.23 485.961 153.455L486.5 157.5V173L485.5 195.5V230.43C485.5 231.472 485.355 232.508 485.069 233.51L484.705 234.781C484.57 235.256 484.348 235.703 484.051 236.098C483.38 236.993 482.37 237.57 481.259 237.693L478.5 238L443.5 237.5H410L368 237H337.5L311.5 236.5H273.5V227Z" fill="#FFC9B0" stroke="black" stroke-width="6"/>
<path d="M505.5 216.124V145.5L582 145L595.993 145.8C598.28 145.93 600.477 146.733 602.31 148.107C603.1 148.7 603.812 149.391 604.427 150.163L656.5 215.5L656.893 216.089C658.593 218.639 659.5 221.635 659.5 224.7V225.518C659.5 227.796 658.881 230.032 657.708 231.986L657.538 232.27C656.852 233.413 655.96 234.42 654.907 235.239C653.022 236.705 650.705 237.505 648.317 237.514L521.2 237.986C518.773 237.995 516.383 237.391 514.252 236.228C512.762 235.416 511.42 234.337 510.302 233.06C509.117 231.705 508.184 230.132 507.569 228.441L507.189 227.395C506.731 226.135 506.397 224.833 506.193 223.507L505.937 221.843C505.646 219.95 505.5 218.038 505.5 216.124Z" fill="#FFC9B0" stroke="black" stroke-width="6"/>
<path d="M218.236 229.543L217.208 228.629C216.739 228.213 216.344 227.72 216.04 227.172C214.832 224.998 215.212 222.288 216.97 220.53L303.447 134.053C304.739 132.761 306.565 132.152 308.374 132.411C308.79 132.47 309.198 132.574 309.592 132.722L311.566 133.462C312.506 133.815 313.338 134.406 313.981 135.177C314.954 136.345 315.429 137.849 315.303 139.365L315.22 140.357C315.077 142.075 314.397 143.705 313.276 145.016L256 212L249.396 220.439C247.802 222.475 246.02 224.357 244.074 226.06L241.2 228.575C239.743 229.85 238.089 230.88 236.302 231.624C234.122 232.532 231.784 233 229.423 233H227.365C226.457 233 225.542 232.908 224.652 232.73C222.277 232.255 220.046 231.152 218.236 229.543Z" fill="#FFC9B0" stroke="black" stroke-width="6"/>
<circle cx="633" cy="400" r="36.5" fill="#FFD6A3"/>
<path d="M36 316.5C36 321.802 35.1898 326.492 33.9625 329.764C33.3454 331.41 32.6709 332.568 32.0487 333.27C31.4239 333.974 31.0638 334 31 334C30.9362 334 30.5761 333.974 29.9513 333.27C29.3291 332.568 28.6546 331.41 28.0375 329.764C26.8102 326.492 26 321.802 26 316.5C26 311.198 26.8102 306.508 28.0375 303.236C28.6546 301.59 29.3291 300.432 29.9513 299.73C30.5761 299.026 30.9362 299 31 299C31.0638 299 31.4239 299.026 32.0487 299.73C32.6709 300.432 33.3454 301.59 33.9625 303.236C35.1898 306.508 36 311.198 36 316.5Z" fill="#FFB800" stroke="black" stroke-width="5"/>
<path d="M422.409 380H290C281.716 380 275 373.284 275 365V268.5C275 260.216 281.716 253.5 290 253.5H468C476.284 253.5 483 260.216 483 268.5V320.664C483 324.715 481.362 328.593 478.458 331.417L432.867 375.754C430.067 378.477 426.315 380 422.409 380Z" fill="#BE6A6A" stroke="black" stroke-width="6"/>
<rect x="296" y="286" width="13" height="6" fill="black"/>
<circle cx="144" cy="400" r="23" fill="black"/>
<circle cx="633" cy="400" r="23" fill="black"/>
<rect x="515" y="253" width="147" height="6" rx="3" fill="black"/>
<rect x="512" y="279" width="105" height="6" rx="3" fill="black"/>
<rect x="509" y="305" width="69" height="6" rx="3" fill="black"/>
<rect x="506" y="331" width="44" height="6" rx="3" fill="black"/>
<rect x="453" y="377" width="83" height="6" rx="3" fill="black"/>
<rect x="472" y="355" width="69" height="6" rx="3" fill="black"/>
</svg>
